<?xml version="1.0" encoding="UTF-8" standalone="no"?>
<!-- Created with Inkscape (http://www.inkscape.org/) -->

<svg
   xmlns:dc="http://purl.org/dc/elements/1.1/"
   xmlns:cc="http://creativecommons.org/ns#"
   xmlns:rdf="http://www.w3.org/1999/02/22-rdf-syntax-ns#"
   xmlns:svg="http://www.w3.org/2000/svg"
   xmlns="http://www.w3.org/2000/svg"
   xmlns:xlink="http://www.w3.org/1999/xlink"
   xmlns:sodipodi="http://sodipodi.sourceforge.net/DTD/sodipodi-0.dtd"
   xmlns:inkscape="http://www.inkscape.org/namespaces/inkscape"
   width="512"
   height="512"
   viewBox="0 0 512 512"
   version="1.1"
   id="SVGRoot"
   inkscape:version="0.92.3 (2405546, 2018-03-11)"
   sodipodi:docname="logo.svg">
  <sodipodi:namedview
     id="base"
     pagecolor="#ffffff"
     bordercolor="#666666"
     borderopacity="1.0"
     inkscape:pageopacity="0.0"
     inkscape:pageshadow="2"
     inkscape:zoom="1"
     inkscape:cx="171.99455"
     inkscape:cy="198.60076"
     inkscape:document-units="px"
     inkscape:current-layer="XMLID_1580_"
     showgrid="false"
     inkscape:window-width="1920"
     inkscape:window-height="1017"
     inkscape:window-x="1912"
     inkscape:window-y="-8"
     inkscape:window-maximized="1"
     inkscape:grid-bbox="true" />
  <defs
     id="defs26">
    <linearGradient
       inkscape:collect="always"
       id="linearGradient264">
      <stop
         style="stop-color:#ff3244;stop-opacity:1"
         offset="0"
         id="stop260" />
      <stop
         style="stop-color:#2dffff;stop-opacity:1"
         offset="1"
         id="stop262" />
    </linearGradient>
    <linearGradient
       inkscape:collect="always"
       xlink:href="#linearGradient264"
       id="linearGradient266"
       x1="7"
       y1="-180"
       x2="450"
       y2="239"
       gradientUnits="userSpaceOnUse" />
  </defs>
  <metadata
     id="metadata29">
    <rdf:RDF>
      <cc:Work
         rdf:about="">
        <dc:format>image/svg+xml</dc:format>
        <dc:type
           rdf:resource="http://purl.org/dc/dcmitype/StillImage" />
        <dc:title></dc:title>
      </cc:Work>
    </rdf:RDF>
  </metadata>
  <g
     id="layer1"
     inkscape:groupmode="layer"
     inkscape:label="Calque 1"
     transform="translate(0,256)">
    <circle
       style="opacity:1;fill:url(#linearGradient266);fill-opacity:1;stroke:none;stroke-width:6.55636454;stroke-miterlimit:4;stroke-dasharray:none;stroke-opacity:0.4908257"
       id="path42"
       cx="256"
       cy="1.9999812"
       r="252.72182" />
    <g
       id="XMLID_1580_"
       transform="matrix(0.52491356,0,0,0.52491356,267.76068,-129.46483)">
      <path
         d="M 392.433,248.922 V 50 h -332 v 240 h 310.852"
         id="XMLID_777_"
         inkscape:connector-curvature="0"
         style="fill:#00ffff;fill-opacity:0.05045871" />
      <path
         d="M 392.433,248.922 351.265,209.095 257.271,168 c -17.738,-17.738 -46.496,-17.738 -64.234,0 -17.738,17.738 -46.496,17.738 -64.234,0 -17.738,-17.738 -46.496,-17.738 -64.234,0 l -4.137,0.947 V 290 h 310.852 z"
         id="XMLID_1014_"
         inkscape:connector-curvature="0"
         style="fill:#d74b15;fill-opacity:1" />
      <g
         id="g118"
         style="fill:#ffcd69">
        <path
           d="M 403.079,338 H 49.788 c -12.622,0 -22.854,-11.378 -22.854,-24 0,-12.622 10.232,-24 22.854,-24 h 353.291 c 12.622,0 22.854,10.232 22.854,22.854 v 2.291 c 0,12.623 -10.232,22.855 -22.854,22.855 z"
           id="XMLID_1500_"
           inkscape:connector-curvature="0" />
        <path
           d="M 391.642,502 347.699,338 h -49.793 l 43.943,164 z"
           id="XMLID_1498_"
           inkscape:connector-curvature="0" />
        <path
           d="M 111.018,502 154.961,338 H 105.168 L 61.225,502 Z"
           id="XMLID_1497_"
           inkscape:connector-curvature="0" />
        <path
           d="M 160.267,10 H 292.6 V 50 H 160.267 Z"
           id="XMLID_1461_"
           inkscape:connector-curvature="0" />
      </g>
      <g
         id="XMLID_775_">
        <path
           d="M 478.638,335.127 354.819,211.307 323.706,242.42 447.525,366.24 c 8.592,8.592 22.521,8.592 31.113,0 8.592,-8.592 8.592,-22.522 0,-31.113 z"
           id="XMLID_860_"
           inkscape:connector-curvature="0"
           style="fill:#d1a184" />
        <path
           d="m 310.058,154.755 h -1.4 c -18.351,0 -36.043,-6.842 -49.619,-19.189 v 53.761 c 0,28.177 22.842,51.019 51.019,51.019 23.635,0 42.796,-19.16 42.796,-42.796 0,-23.635 -19.16,-42.795 -42.796,-42.795 z"
           id="XMLID_781_"
           inkscape:connector-curvature="0"
           style="fill:#ffd6f5;fill-opacity:1" />
      </g>
      <g
         id="XMLID_1078_">
        <path
           d="M 485.71,328.056 402.434,244.78 V 181.5 c 0,-5.523 -4.478,-10 -10,-10 -5.522,0 -10,4.477 -10,10 v 43.281 l -20.077,-20.077 c 0.319,-2.341 0.498,-4.726 0.498,-7.153 0,-29.111 -24.385,-52.795 -53.496,-52.795 -15.897,0 -31.83,-5.891 -43.591,-16.587 -2.929,-2.664 -7.153,-3.349 -10.773,-1.748 -3.62,1.601 -5.955,5.187 -5.955,9.146 v 14.515 c -7.364,-3.522 -15.48,-5.384 -23.884,-5.384 -14.804,0 -28.721,5.765 -39.188,16.232 -13.811,13.812 -36.281,13.81 -50.092,0 -10.468,-10.468 -24.385,-16.232 -39.188,-16.232 -9.315,0 -18.278,2.287 -26.253,6.588 V 60 h 312 v 31.5 c 0,5.523 4.478,10 10,10 5.522,0 10,-4.477 10,-10 V 50 c 0,-5.523 -4.478,-10 -10,-10 H 302.6 V 10 c 0,-5.523 -4.478,-10 -10,-10 H 160.266 c -5.522,0 -10,4.477 -10,10 V 40 H 60.433 c -5.522,0 -10,4.477 -10,10 v 230 h -0.646 c -18.116,0 -32.854,15.884 -32.854,34 0,18.116 14.738,34 32.854,34 H 92.135 L 51.566,499.412 c -0.805,3.003 -0.167,6.209 1.726,8.676 1.893,2.467 4.825,3.913 7.934,3.913 h 49.793 c 4.526,0 8.488,-3.04 9.659,-7.412 l 20.088,-74.971 h 171.336 l 20.088,74.971 c 1.171,4.372 5.133,7.412 9.659,7.412 h 49.793 c 3.108,0 6.041,-1.446 7.934,-3.913 1.893,-2.466 2.53,-5.672 1.726,-8.676 L 360.731,348 h 42.348 c 3.563,0 7.052,-0.588 10.372,-1.692 l 27.003,27.003 c 6.239,6.238 14.433,9.357 22.628,9.357 8.194,0 16.39,-3.119 22.628,-9.357 12.475,-12.478 12.475,-32.779 0,-45.255 z M 170.266,20 H 282.6 V 40 H 170.266 Z m 98.773,134.802 c 12.081,6.494 26.354,9.953 40.319,9.953 18.084,0 33.496,14.712 33.496,32.795 0,18.083 -14.712,32.796 -32.796,32.796 -22.618,0 -41.02,-18.401 -41.02,-41.019 V 154.802 Z M 70.433,176.087 c 0.421,-0.306 0.829,-0.637 1.208,-1.016 6.689,-6.69 15.584,-10.374 25.045,-10.374 9.462,0 18.356,3.684 25.046,10.375 10.805,10.804 24.996,16.206 39.188,16.206 14.192,0 28.384,-5.402 39.188,-16.206 6.689,-6.69 15.584,-10.374 25.046,-10.374 8.924,0 17.343,3.281 23.884,9.268 v 15.362 c 0,33.646 27.373,61.019 61.02,61.019 2.36,0 4.679,-0.171 6.958,-0.473 L 347.143,280 H 70.433 Z M 103.346,492 H 74.258 l 38.583,-144 h 29.088 z M 146.124,409.618 162.634,348 h 127.599 l 16.51,61.618 z M 378.609,492 H 349.521 L 310.938,348 h 29.088 z M 49.788,328 c -7.088,0 -12.854,-6.912 -12.854,-14 0,-7.088 5.767,-14 12.854,-14 h 317.355 l 28,28 z m 421.779,31.168 c -4.68,4.68 -12.293,4.679 -16.971,0 L 337.844,242.416 c 6.876,-4.274 12.7,-10.083 16.994,-16.946 l 116.729,116.728 c 4.679,4.678 4.679,12.292 0,16.97 z"
           id="XMLID_265_"
           inkscape:connector-curvature="0"
           style="fill:#ffffff;fill-opacity:1" />
        <path
           d="m 392.433,126.5 c -2.63,0 -5.21,1.07 -7.07,2.93 -1.86,1.86 -2.93,4.44 -2.93,7.07 0,2.63 1.069,5.21 2.93,7.07 1.861,1.86 4.44,2.93 7.07,2.93 2.63,0 5.21,-1.07 7.069,-2.93 1.86,-1.86 2.931,-4.44 2.931,-7.07 0,-2.63 -1.07,-5.21 -2.931,-7.07 -1.859,-1.86 -4.439,-2.93 -7.069,-2.93 z"
           id="XMLID_1516_"
           inkscape:connector-curvature="0"
           style="fill-opacity:1;fill:#ffffff" />
      </g>
    </g>
    <g
       id="g258"
       transform="matrix(-0.48542405,0.07809647,0.07809647,0.48542405,271.68051,-108.48449)"
       style="fill:#ffffff">
      <path
         id="path245"
         d="M 19.562,198.656 40,212.281 v 9.052 L 17.6,251.2 A 8,8 0 0 0 24,264 h 24 a 8.026,8.026 0 0 0 1.569,-0.155 l 40,-8 a 8,8 0 0 0 2.869,-1.189 l 22.846,-15.231 23.469,-5.867 13.5,40.5 8.928,44.636 -24.732,70.661 a 8,8 0 0 0 4.944,10.206 l 38.625,13.319 4.137,20.687 a 8,8 0 0 0 6.961,6.382 l 101.889,11.321 -12.512,33.962 A 8,8 0 0 0 288,496 h 200 a 8,8 0 0 0 7.993,-8.32 l -8,-200 A 7.988,7.988 0 0 0 480,280.005 v -20.583 l 10.734,-3.9 a 8.0006323,8.0006323 0 1 0 -5.468,-15.038 L 480,242.4 V 76.944 l 11.578,-5.789 a 8,8 0 0 0 2.186,-12.7 C 492.1,56.719 452.211,16 392,16 331.238,16 298.981,57.387 297.639,59.149 a 8,8 0 0 0 3.831,12.44 l 7.5,2.5 -25.086,15.051 a 8,8 0 0 0 2.176,14.621 l 32.88,8.22 -30.474,85.328 A 8,8 0 0 0 296,208 h 16.938 l 7.124,56.992 A 8,8 0 0 0 328,272 h 24 v 16.942 l -42.71,15.531 c -4.1,1.474 -11.888,-1.11 -14,-3.889 L 272,230.7 V 120 a 8,8 0 0 0 -8,-8 H 248 V 88 a 8,8 0 0 0 -8,-8 h -32 a 8,8 0 0 0 -8,8 v 24 a 8,8 0 0 0 -8,8 h -47.015 l -28.9,-7.224 -22.428,-22.433 a 8.012,8.012 0 0 0 -4.088,-2.188 l -40,-8 A 8.026,8.026 0 0 0 48,80 H 24 A 8,8 0 0 0 17.6,92.8 L 40,122.667 v 9.052 L 19.562,145.344 A 8,8 0 0 0 16,152 v 40 a 8,8 0 0 0 3.562,6.656 z M 238.734,334.934 223.853,270.453 218.778,240 h 35.778 z M 195.056,216 l 5.251,10.5 6.25,37.5 H 165.766 L 152.638,224.614 156.944,216 Z m -40.85,171.057 13.139,-37.54 9.037,45.187 z M 169.759,280 h 39.877 l 22.569,97.8 A 8,8 0 0 0 240,384 h 168 a 32.000686,32.000686 0 0 1 0.419,64 L 198.7,424.7 Z m 129.714,200 9.913,-26.908 97.73,10.859 A 7.923,7.923 0 0 0 408,464 48,48 0 0 0 408,368 H 340.736 L 350.207,342.293 472.439,299.152 479.674,480 Z M 464,285.164 368,319.046 v -18.9 l 96,-34.909 z M 392,32 c 38.28,0 67.983,19.227 81.782,30.165 L 470.111,64 H 329.3 L 318.534,60.412 A 109.319,109.319 0 0 1 392,32 Z M 330.216,80 H 464 v 131.056 l -18.037,-9.019 -30.808,-61.615 A 8,8 0 0 0 408,136 h -10.234 l -6.176,-18.53 a 8,8 0 0 0 -5.65,-5.231 L 308.678,92.923 Z M 360,256 h -24.938 l -3.14,-25.125 a 7.938,7.938 0 0 0 6.018,0.886 l 32,-8 a 8,8 0 0 0 -3.88,-15.522 l -32,8 a 7.95,7.95 0 0 0 -3.7,2.1 l -2.417,-19.334 A 8,8 0 0 0 320,192 h -12.647 l 27.185,-76.119 43.262,10.819 6.611,19.834 A 8,8 0 0 0 392,152 h 11.056 l 29.789,59.578 a 8,8 0 0 0 3.577,3.577 L 464,228.944 v 19.27 l -96,34.91 V 264 a 8,8 0 0 0 -8,-8 z m -79.023,51.831 c 4.606,8.444 15.845,13 25.52,13 a 24.558,24.558 0 0 0 8.237,-1.307 L 352,305.967 v 18.726 l -10.662,3.763 a 8,8 0 0 0 -4.845,4.778 L 323.684,368 h -74.24 L 266.6,265.088 280.41,306.53 a 8.118,8.118 0 0 0 0.567,1.301 z M 256,224 h -39.889 l -0.219,-1.315 a 8.026,8.026 0 0 0 -0.737,-2.263 L 208,206.112 V 128 h 48 z M 216,96 h 16 v 16 h -16 z m -64,40 h 40 v 64 h -40 z m -32,-5.754 16,4 v 83.508 l -16,4 z M 32,156.281 52.438,142.656 A 8,8 0 0 0 56,136 v -16 a 8,8 0 0 0 -1.6,-4.8 L 40,96 h 7.208 L 84.056,103.37 104,123.314 V 227.719 L 84.879,240.466 47.208,248 H 40 L 54.4,228.8 A 8,8 0 0 0 56,224 v -16 a 8,8 0 0 0 -3.562,-6.656 L 32,187.719 Z"
         inkscape:connector-curvature="0"
         style="fill:#ffffff" />
      <circle
         id="circle247"
         r="8"
         cy="152"
         cx="352"
         style="fill:#ffffff" />
    </g>
  </g>
</svg>
