<?xml version="1.0" encoding="UTF-8" standalone="no"?>
<!-- Created with Inkscape (http://www.inkscape.org/) -->

<svg
   xmlns:dc="http://purl.org/dc/elements/1.1/"
   xmlns:cc="http://creativecommons.org/ns#"
   xmlns:rdf="http://www.w3.org/1999/02/22-rdf-syntax-ns#"
   xmlns:svg="http://www.w3.org/2000/svg"
   xmlns="http://www.w3.org/2000/svg"
   xmlns:xlink="http://www.w3.org/1999/xlink"
   xmlns:sodipodi="http://sodipodi.sourceforge.net/DTD/sodipodi-0.dtd"
   xmlns:inkscape="http://www.inkscape.org/namespaces/inkscape"
   width="512"
   height="512"
   viewBox="0 0 512 512"
   version="1.1"
   id="SVGRoot"
   inkscape:version="0.92.3 (2405546, 2018-03-11)"
   sodipodi:docname="logo.svg"
   inkscape:export-filename="D:\Documents\InfoProject\editeur\assets\logo.png"
   inkscape:export-xdpi="130"
   inkscape:export-ydpi="130">
  <sodipodi:namedview
     id="base"
     pagecolor="#ffffff"
     bordercolor="#666666"
     borderopacity="1.0"
     inkscape:pageopacity="0.0"
     inkscape:pageshadow="2"
     inkscape:zoom="1"
     inkscape:cx="117.13538"
     inkscape:cy="200.78456"
     inkscape:document-units="px"
     inkscape:current-layer="XMLID_1580_"
     showgrid="false"
     inkscape:window-width="1920"
     inkscape:window-height="1017"
     inkscape:window-x="1912"
     inkscape:window-y="55"
     inkscape:window-maximized="1"
     inkscape:grid-bbox="true" />
  <defs
     id="defs26">
    <linearGradient
       inkscape:collect="always"
       id="linearGradient264">
      <stop
         style="stop-color:#ffebff;stop-opacity:1"
         offset="0"
         id="stop260" />
      <stop
         style="stop-color:#99e0ff;stop-opacity:1"
         offset="1"
         id="stop262" />
    </linearGradient>
    <radialGradient
       inkscape:collect="always"
       xlink:href="#linearGradient264"
       id="radialGradient839"
       cx="40.464943"
       cy="35.85318"
       fx="40.464943"
       fy="35.85318"
       r="239.06664"
       gradientTransform="matrix(0,2.0604807,-1.9576572,0,110.65318,-63.117815)"
       gradientUnits="userSpaceOnUse" />
    <linearGradient
       inkscape:collect="always"
       xlink:href="#linearGradient264"
       id="linearGradient845"
       x1="114.09185"
       y1="102.64191"
       x2="403.62262"
       y2="427.45728"
       gradientUnits="userSpaceOnUse" />
    <linearGradient
       inkscape:collect="always"
       xlink:href="#linearGradient264"
       id="linearGradient849"
       gradientUnits="userSpaceOnUse"
       x1="114.09185"
       y1="102.64191"
       x2="403.62262"
       y2="427.45728" />
  </defs>
  <metadata
     id="metadata29">
    <rdf:RDF>
      <cc:Work
         rdf:about="">
        <dc:format>image/svg+xml</dc:format>
        <dc:type
           rdf:resource="http://purl.org/dc/dcmitype/StillImage" />
        <dc:title />
      </cc:Work>
    </rdf:RDF>
  </metadata>
  <g
     id="layer1"
     inkscape:groupmode="layer"
     inkscape:label="Calque 1"
     transform="translate(0,256)">
    <g
       id="XMLID_1580_"
       transform="matrix(0.52491356,0,0,0.52491356,142.76068,-134.46483)">
      <g
         id="g118"
         style="fill:#ffcd69"
         transform="matrix(1.4634975,0,0,1.4634975,-145.89912,-126.15757)">
        <path
           d="M 403.079,338 H 49.788 c -12.622,0 -22.854,-11.378 -22.854,-24 0,-12.622 10.232,-24 22.854,-24 h 353.291 c 12.622,0 22.854,10.232 22.854,22.854 v 2.291 c 0,12.623 -10.232,22.855 -22.854,22.855 z"
           id="XMLID_1500_"
           inkscape:connector-curvature="0"
           style="fill:none" />
        <path
           d="M 391.642,502 347.699,338 h -49.793 l 43.943,164 z"
           id="XMLID_1498_"
           inkscape:connector-curvature="0"
           style="fill:none" />
        <path
           d="M 111.018,502 154.961,338 H 105.168 L 61.225,502 Z"
           id="XMLID_1497_"
           inkscape:connector-curvature="0"
           style="fill:none" />
        <path
           d="M 160.267,10 H 292.6 V 50 H 160.267 Z"
           id="XMLID_1461_"
           inkscape:connector-curvature="0"
           style="fill:none" />
      </g>
      <g
         id="XMLID_775_"
         transform="matrix(1.4634975,0,0,1.4634975,-145.89912,-126.15757)">
        <path
           d="M 478.638,335.127 354.819,211.307 323.706,242.42 447.525,366.24 c 8.592,8.592 22.521,8.592 31.113,0 8.592,-8.592 8.592,-22.522 0,-31.113 z"
           id="XMLID_860_"
           inkscape:connector-curvature="0"
           style="fill:#d1a184;fill-opacity:0.01069521" />
        <path
           d="m 310.058,154.755 h -1.4 c -18.351,0 -36.043,-6.842 -49.619,-19.189 v 53.761 c 0,28.177 22.842,51.019 51.019,51.019 23.635,0 42.796,-19.16 42.796,-42.796 0,-23.635 -19.16,-42.795 -42.796,-42.795 z"
           id="XMLID_781_"
           inkscape:connector-curvature="0"
           style="fill:#220099;fill-opacity:1" />
      </g>
      <g
         id="XMLID_1078_"
         style="fill:url(#radialGradient839);fill-opacity:1;stroke:none;stroke-opacity:1"
         transform="matrix(1.4634975,0,0,1.4634975,-145.89912,-126.15757)">
        <path
           style="fill:url(#linearGradient849);fill-opacity:1;stroke:none;stroke-opacity:1"
           d="m 289.14453,-4.2871094 c -43.71786,0.7777172 -87.53071,-0.1230158 -131.26367,0.453125 -9.14027,1.3603065 -13.3788,11.7455427 -11.61524,20.0156254 0,6.609375 10e-6,13.21875 0,19.828125 -29.833,0.287689 -59.733418,-0.632108 -89.525386,0.46289 -8.938759,2.165483 -11.81808,12.64257 -10.30664,20.697266 -0.11068,72.941918 0.221357,146.296408 -0.166016,218.980468 -23.515631,1.945 -40.0048221,29.42898 -30.964844,51.17969 C 21.125961,343.56591 38.759796,354.33536 55.875,352 c 10.350911,0 20.701823,0 31.052734,0 -13.133029,49.93017 -27.223097,99.65572 -39.722656,149.72266 -0.50576,9.81109 10.250694,16.4086 19.200875,14.24286 16.581851,-0.55026 33.409125,1.31263 49.838187,-0.9245 10.40964,-4.42439 9.68222,-17.87054 12.96528,-26.84259 4.87551,-18.19375 9.75101,-36.3875 14.62652,-54.58124 55.06901,0 110.13802,0 165.20703,0 7.24534,25.31501 12.75884,51.24625 21.11719,76.16992 6.0538,9.00573 18.31409,5.90356 27.34961,6.11969 13.19364,-0.31071 26.69577,1.34229 39.70312,-1.02008 8.68642,-3.52123 10.28152,-14.85506 6.35344,-22.47872 -12.5475,-46.82611 -25.095,-93.65221 -37.6425,-140.47831 15.53489,-0.25193 31.46925,1.07486 46.76562,-0.90821 6.01934,6.92684 13.18856,12.49196 19.16144,19.55718 8.99058,10.56148 22.73332,18.46228 36.98309,15.68306 18.14604,-2.78017 32.50909,-20.71395 30.0918,-39.14649 -1.05404,-12.60392 -9.75092,-22.58406 -18.93991,-30.4399 -24.51807,-24.51808 -49.03615,-49.03616 -73.55423,-73.55424 -0.2858,-65.56187 0.5909,-131.18336 -0.43945,-196.708981 C 403.87934,37.413466 393.34894,34.464597 385.25586,36 c -26.24219,-0.0065 -52.51042,0.01302 -78.73633,-0.0098 -0.68585,-10.756969 1.92544,-22.09252 -1.46484,-32.5039059 -2.89427,-5.7713438 -9.82007,-8.0744893 -15.91016,-7.7734375 z M 278.30859,24 c -0.53188,3.84275 2.00804,8.707965 -0.29687,11.953125 -34.45906,0.07173 -69.08852,0.09106 -103.45508,-0.0098 0.52317,-3.822159 -2.00551,-8.671173 0.29688,-11.896484 34.47824,-0.109464 68.97171,-0.0155 103.45507,-0.04684 z m 100.12696,40 c -6.5e-4,50.33203 -10e-4,100.66406 -0.002,150.99609 -3.87794,-4.20938 -9.41988,-7.74646 -11.74218,-12.94531 3.11529,-30.15654 -22.35535,-59.51142 -52.58789,-61 -13.27263,-0.28166 -27.08704,-2.1621 -38.11524,-10.17187 -6.18285,-3.84897 -12.181,-11.67636 -20.41797,-8.86719 -7.41042,1.8881 -11.63117,9.66316 -10.71093,16.93164 -0.49256,1.64683 1.99505,6.75549 -1.16797,4.68164 -22.14077,-7.6299 -47.93993,-0.0794 -63.51368,17.12891 -13.06471,10.52894 -33.67982,7.72642 -44.11523,-5.1543 -16.31393,-14.82658 -41.283785,-19.00647 -61.626953,-10.62891 0,-26.99023 0,-53.980466 0,-80.9707 101.333333,0 202.666663,0 304.000003,0 z m -105.16016,97.33203 c 13.60546,6.33492 28.81312,7.15365 43.48828,8.29883 16.69606,3.82859 27.46681,24.21205 19.53906,39.95117 -6.50821,14.55121 -25.20663,20.8141 -39.54492,14.37891 -16.04202,-6.02404 -25.91802,-23.83919 -23.7207,-40.66016 0.14866,-7.18437 -0.30358,-15.40894 0.23828,-21.96875 z m -174.568359,7.36328 c 11.884399,0.15996 20.200749,9.38975 28.682669,16.32603 23.32986,16.4026 58.43689,12.62877 77.2978,-8.93345 11.0712,-9.19002 29.24766,-10.35612 39.98438,-0.18164 1.42861,5.74761 -0.57027,11.82399 0.44335,17.70898 1.57493,31.93246 29.86607,60.00181 61.96544,60.66734 3.95658,0.80438 9.0054,-2.07182 11.29854,2.61031 6.36904,6.36904 12.73808,12.73808 19.10712,19.10712 -87.68099,0 -175.36198,0 -263.042971,0 0.180236,-32.7928 -0.415292,-65.61984 0.298829,-98.39062 6.282156,-6.20749 15.176552,-9.38852 23.964843,-8.91407 z M 468.70312,344.99023 c 6.7074,5.46581 -2.06051,17.94584 -9.37695,12.51172 -7.83012,-5.3495 -13.06175,-13.66464 -20.39701,-19.65678 -31.45868,-31.65161 -63.75058,-63.36485 -94.68893,-94.97798 4.21611,-3.1823 7.98258,-6.95798 11.16211,-11.17578 37.76693,37.76627 75.53386,75.53255 113.30078,113.29882 z M 57.255859,303.82617 c 61.855321,0.48747 123.764291,-4e-5 185.640621,0.17383 40.86329,0 81.72657,0 122.58985,0 6.66601,6.66602 13.33203,13.33203 19.99805,19.99805 -112.57238,-0.18582 -225.19571,0.38947 -337.736333,-0.30078 -9.531485,-2.49919 -8.598649,-19.6386 2.009765,-19.41602 2.321557,-0.31425 4.890031,-0.43471 7.498047,-0.45508 z M 136.71875,352 c -12.14779,45.33333 -24.29557,90.66667 -36.44336,136 -6.935546,0 -13.871093,0 -20.80664,0 12.147786,-45.33333 24.29557,-90.66667 36.44336,-136 6.93555,0 13.87109,0 20.80664,0 z m 150.44336,0 c 4.78971,17.8724 9.57943,35.74479 14.36914,53.61719 -50.06576,0 -100.13151,0 -150.19727,0 4.79037,-17.8724 9.58073,-35.74479 14.3711,-53.61719 40.48568,0 80.97135,0 121.45703,0 z m 49.79297,0 c 12.14778,45.33333 24.29557,90.66667 36.44336,136 -6.93555,0 -13.8711,0 -20.80664,0 -12.14779,-45.33333 -24.29558,-90.66667 -36.44336,-136 6.93554,0 13.87109,0 20.80664,0 z"
           id="XMLID_265_"
           inkscape:connector-curvature="0" />
      </g>
      <rect
         style="opacity:0.45800003;fill:#ffebff;fill-opacity:1;stroke:#e84747;stroke-width:2.17210889;stroke-linecap:round;stroke-linejoin:round;stroke-miterlimit:4;stroke-dasharray:none;stroke-opacity:0.3940678;paint-order:normal"
         id="rect837"
         width="320.47339"
         height="329.99875"
         x="-925.62115"
         y="-300.32675" />
      <rect
         y="29.671997"
         x="-925.62115"
         height="329.99875"
         width="320.47339"
         id="rect839"
         style="opacity:0.45800003;fill:#99e0ff;fill-opacity:0.77005351;stroke:#e84747;stroke-width:2.17210889;stroke-linecap:round;stroke-linejoin:round;stroke-miterlimit:4;stroke-dasharray:none;stroke-opacity:0.3940678;paint-order:normal" />
    </g>
    <rect
       style="opacity:0.45800003;fill:none;fill-opacity:0.01069521;stroke:none;stroke-width:9.21826744;stroke-linecap:round;stroke-linejoin:round;stroke-miterlimit:4;stroke-dasharray:none;stroke-opacity:1;paint-order:normal"
       id="rect849"
       width="511.23819"
       height="513.3595"
       x="-0.70710677"
       y="-254.5311" />
  </g>
</svg>
