<?xml version="1.0" encoding="UTF-8" standalone="no"?>
<!-- Created with Inkscape (http://www.inkscape.org/) -->

<svg
   xmlns:dc="http://purl.org/dc/elements/1.1/"
   xmlns:cc="http://creativecommons.org/ns#"
   xmlns:rdf="http://www.w3.org/1999/02/22-rdf-syntax-ns#"
   xmlns:svg="http://www.w3.org/2000/svg"
   xmlns="http://www.w3.org/2000/svg"
   xmlns:xlink="http://www.w3.org/1999/xlink"
   xmlns:sodipodi="http://sodipodi.sourceforge.net/DTD/sodipodi-0.dtd"
   xmlns:inkscape="http://www.inkscape.org/namespaces/inkscape"
   width="512"
   height="512"
   viewBox="0 0 512 512"
   version="1.1"
   id="SVGRoot"
   inkscape:version="0.92.3 (2405546, 2018-03-11)"
   sodipodi:docname="logo.svg"
   inkscape:export-filename="D:\Documents\InfoProject\editeur\assets\logo.png"
   inkscape:export-xdpi="96"
   inkscape:export-ydpi="96">
  <sodipodi:namedview
     id="base"
     pagecolor="#ffffff"
     bordercolor="#666666"
     borderopacity="1.0"
     inkscape:pageopacity="0.0"
     inkscape:pageshadow="2"
     inkscape:zoom="0.70710678"
     inkscape:cx="-167.55464"
     inkscape:cy="308.54722"
     inkscape:document-units="px"
     inkscape:current-layer="XMLID_1580_"
     showgrid="false"
     inkscape:window-width="1920"
     inkscape:window-height="1017"
     inkscape:window-x="1912"
     inkscape:window-y="-8"
     inkscape:window-maximized="1"
     inkscape:grid-bbox="true"
     showguides="false" />
  <defs
     id="defs26">
    <linearGradient
       inkscape:collect="always"
       id="linearGradient5584">
      <stop
         style="stop-color:#99e0ff;stop-opacity:1"
         offset="0"
         id="stop5578" />
      <stop
         id="stop5580"
         offset="0.35544685"
         style="stop-color:#cde5ff;stop-opacity:0.50980392;" />
      <stop
         style="stop-color:#99e0ff;stop-opacity:0"
         offset="1"
         id="stop5582" />
    </linearGradient>
    <linearGradient
       id="linearGradient5474"
       inkscape:collect="always">
      <stop
         id="stop5468"
         offset="0"
         style="stop-color:#99e0ff;stop-opacity:1" />
      <stop
         style="stop-color:#cde5ff;stop-opacity:0.50980392;"
         offset="0.36511433"
         id="stop5470" />
      <stop
         id="stop5472"
         offset="1"
         style="stop-color:#99e0ff;stop-opacity:0" />
    </linearGradient>
    <linearGradient
       inkscape:collect="always"
       id="linearGradient4971">
      <stop
         style="stop-color:#99e0ff;stop-opacity:1"
         offset="0"
         id="stop4967" />
      <stop
         id="stop5407"
         offset="0.31539589"
         style="stop-color:#cde5ff;stop-opacity:0.50980392;" />
      <stop
         style="stop-color:#99e0ff;stop-opacity:0"
         offset="1"
         id="stop4969" />
    </linearGradient>
    <linearGradient
       inkscape:collect="always"
       xlink:href="#linearGradient4971"
       id="linearGradient4975"
       x1="-1626.4786"
       y1="509.5408"
       x2="-1260.7041"
       y2="873.88647"
       gradientUnits="userSpaceOnUse" />
    <filter
       inkscape:collect="always"
       style="color-interpolation-filters:sRGB"
       id="filter5403"
       x="-0.099383556"
       width="1.1987671"
       y="-0.092839248"
       height="1.1856785">
      <feGaussianBlur
         inkscape:collect="always"
         stdDeviation="20.141907"
         id="feGaussianBlur5405" />
    </filter>
    <linearGradient
       gradientTransform="matrix(2.6666666,0,0,2.6771238,4064.4134,-1592.3627)"
       inkscape:collect="always"
       xlink:href="#linearGradient5474"
       id="linearGradient4975-3"
       x1="-1626.4786"
       y1="509.5408"
       x2="-1260.7041"
       y2="873.88647"
       gradientUnits="userSpaceOnUse" />
    <filter
       inkscape:collect="always"
       style="color-interpolation-filters:sRGB"
       id="filter5544"
       x="-0.024885355"
       width="1.0497707"
       y="-0.023175478"
       height="1.046351">
      <feGaussianBlur
         inkscape:collect="always"
         stdDeviation="6.1982506"
         id="feGaussianBlur5546" />
    </filter>
    <linearGradient
       inkscape:collect="always"
       xlink:href="#linearGradient5584"
       id="linearGradient5576"
       x1="-272.86319"
       y1="-228.259"
       x2="702.53552"
       y2="747.13953"
       gradientUnits="userSpaceOnUse" />
  </defs>
  <metadata
     id="metadata29">
    <rdf:RDF>
      <cc:Work
         rdf:about="">
        <dc:format>image/svg+xml</dc:format>
        <dc:type
           rdf:resource="http://purl.org/dc/dcmitype/StillImage" />
        <dc:title></dc:title>
      </cc:Work>
    </rdf:RDF>
  </metadata>
  <g
     id="layer1"
     inkscape:groupmode="layer"
     inkscape:label="Calque 1"
     transform="translate(0,256)">
    <g
       id="XMLID_1580_"
       transform="matrix(0.52491356,0,0,0.52491356,142.76068,-134.46483)">
      <rect
         style="opacity:1;fill:#ffebff;fill-opacity:1;stroke:#e84747;stroke-width:2.17210889;stroke-linecap:round;stroke-linejoin:round;stroke-miterlimit:4;stroke-dasharray:none;stroke-opacity:0.3940678;paint-order:normal"
         id="rect837"
         width="320.47339"
         height="329.99875"
         x="-925.62115"
         y="-300.32675" />
      <rect
         y="29.671997"
         x="-925.62115"
         height="329.99875"
         width="320.47339"
         id="rect839"
         style="opacity:1;fill:#99e0ff;fill-opacity:0.77005351;stroke:#e84747;stroke-width:2.17210889;stroke-linecap:round;stroke-linejoin:round;stroke-miterlimit:4;stroke-dasharray:none;stroke-opacity:0.3940678;paint-order:normal" />
      <rect
         style="opacity:0.97000002;fill:#939393;fill-opacity:1;stroke:none;stroke-width:17.56149673;stroke-linecap:round;stroke-linejoin:round;stroke-miterlimit:4;stroke-dasharray:none;stroke-opacity:1;paint-order:normal"
         id="rect4537"
         width="365.77451"
         height="365.77451"
         x="-1626.4786"
         y="509.54074"
         ry="0" />
      <rect
         style="opacity:1;fill:#c2648a;fill-opacity:0.15677966;stroke:#bd5ebf;stroke-width:7.20028543;stroke-linecap:round;stroke-linejoin:round;stroke-miterlimit:4;stroke-dasharray:none;stroke-opacity:0.41525424;paint-order:normal"
         id="rect4539"
         width="289.57147"
         height="289.57147"
         x="-1590.1072"
         y="541.19739"
         ry="35.024387" />
      <circle
         style="opacity:1;fill:#c2648a;fill-opacity:0.15677969;stroke:#bd5ebf;stroke-width:7.20028591;stroke-linecap:round;stroke-linejoin:round;stroke-miterlimit:4;stroke-dasharray:none;stroke-opacity:0.41525424;paint-order:normal"
         id="path4541"
         cx="-1443.6069"
         cy="690.12189"
         r="167.64665" />
      <rect
         style="opacity:1;fill:#c2648a;fill-opacity:0.15677966;stroke:#bd5ebf;stroke-width:7.20028591;stroke-linecap:round;stroke-linejoin:round;stroke-miterlimit:4;stroke-dasharray:none;stroke-opacity:0.41525424;paint-order:normal"
         id="rect4543"
         width="243.84967"
         height="335.2933"
         x="-1566.5331"
         y="520.99103"
         ry="35.024433" />
      <rect
         style="opacity:1;fill:#c2648a;fill-opacity:0.15677969;stroke:#bd5ebf;stroke-width:7.20028591;stroke-linecap:round;stroke-linejoin:round;stroke-miterlimit:4;stroke-dasharray:none;stroke-opacity:0.41525424;paint-order:normal"
         id="rect4543-9"
         width="243.84967"
         height="335.2933"
         x="566.71283"
         y="1276.9615"
         ry="35.024433"
         transform="rotate(90)" />
      <rect
         style="opacity:1;fill:#001b2e;fill-opacity:1;stroke:none;stroke-width:10.80042934;stroke-linecap:round;stroke-linejoin:round;stroke-miterlimit:4;stroke-dasharray:none;stroke-opacity:0.41525424;paint-order:normal"
         id="rect4568"
         width="365.77451"
         height="364.3457"
         x="-1626.4786"
         y="509.54074"
         ry="67.691406" />
      <g
         id="XMLID_1078_-6-4"
         style="fill:#ffffff;fill-opacity:1;stroke:none;stroke-opacity:1"
         transform="matrix(0.45401812,0,0,0.45401812,-1546.9445,571.33496)">
        <path
           style="fill:#ffffff;fill-opacity:1;stroke:none;stroke-opacity:1"
           d="m 289.14453,-4.2871094 c -43.71786,0.7777172 -87.53071,-0.1230158 -131.26367,0.453125 -9.14027,1.3603065 -13.3788,11.7455427 -11.61524,20.0156254 0,6.609375 10e-6,13.21875 0,19.828125 -29.833,0.287689 -59.733418,-0.632108 -89.525386,0.46289 -8.938759,2.165483 -11.81808,12.64257 -10.30664,20.697266 -0.11068,72.941918 0.221357,146.296408 -0.166016,218.980468 -23.515631,1.945 -40.0048221,29.42898 -30.964844,51.17969 C 21.125961,343.56591 38.759796,354.33536 55.875,352 c 10.350911,0 20.701823,0 31.052734,0 -13.133029,49.93017 -27.223097,99.65572 -39.722656,149.72266 -0.50576,9.81109 10.250694,16.4086 19.200875,14.24286 16.581851,-0.55026 33.409125,1.31263 49.838187,-0.9245 10.40964,-4.42439 9.68222,-17.87054 12.96528,-26.84259 4.87551,-18.19375 9.75101,-36.3875 14.62652,-54.58124 55.06901,0 110.13802,0 165.20703,0 7.24534,25.31501 12.75884,51.24625 21.11719,76.16992 6.0538,9.00573 18.31409,5.90356 27.34961,6.11969 13.19364,-0.31071 26.69577,1.34229 39.70312,-1.02008 8.68642,-3.52123 10.28152,-14.85506 6.35344,-22.47872 -12.5475,-46.82611 -25.095,-93.65221 -37.6425,-140.47831 15.53489,-0.25193 31.46925,1.07486 46.76562,-0.90821 6.01934,6.92684 13.18856,12.49196 19.16144,19.55718 8.99058,10.56148 22.73332,18.46228 36.98309,15.68306 18.14604,-2.78017 32.50909,-20.71395 30.0918,-39.14649 -1.05404,-12.60392 -9.75092,-22.58406 -18.93991,-30.4399 -24.51807,-24.51808 -49.03615,-49.03616 -73.55423,-73.55424 -0.2858,-65.56187 0.5909,-131.18336 -0.43945,-196.708981 C 403.87934,37.413466 393.34894,34.464597 385.25586,36 c -26.24219,-0.0065 -52.51042,0.01302 -78.73633,-0.0098 -0.68585,-10.756969 1.92544,-22.09252 -1.46484,-32.5039059 -2.89427,-5.7713438 -9.82007,-8.0744893 -15.91016,-7.7734375 z M 278.30859,24 c -0.53188,3.84275 2.00804,8.707965 -0.29687,11.953125 -34.45906,0.07173 -69.08852,0.09106 -103.45508,-0.0098 0.52317,-3.822159 -2.00551,-8.671173 0.29688,-11.896484 34.47824,-0.109464 68.97171,-0.0155 103.45507,-0.04684 z m 100.12696,40 c -6.5e-4,50.33203 -10e-4,100.66406 -0.002,150.99609 -3.87794,-4.20938 -9.41988,-7.74646 -11.74218,-12.94531 3.11529,-30.15654 -22.35535,-59.51142 -52.58789,-61 -13.27263,-0.28166 -27.08704,-2.1621 -38.11524,-10.17187 -6.18285,-3.84897 -12.181,-11.67636 -20.41797,-8.86719 -7.41042,1.8881 -11.63117,9.66316 -10.71093,16.93164 -0.49256,1.64683 1.99505,6.75549 -1.16797,4.68164 -22.14077,-7.6299 -47.93993,-0.0794 -63.51368,17.12891 -13.06471,10.52894 -33.67982,7.72642 -44.11523,-5.1543 -16.31393,-14.82658 -41.283785,-19.00647 -61.626953,-10.62891 0,-26.99023 0,-53.980466 0,-80.9707 101.333333,0 202.666663,0 304.000003,0 z m -105.16016,97.33203 c 13.60546,6.33492 28.81312,7.15365 43.48828,8.29883 16.69606,3.82859 27.46681,24.21205 19.53906,39.95117 -6.50821,14.55121 -25.20663,20.8141 -39.54492,14.37891 -16.04202,-6.02404 -25.91802,-23.83919 -23.7207,-40.66016 0.14866,-7.18437 -0.30358,-15.40894 0.23828,-21.96875 z m -174.568359,7.36328 c 11.884399,0.15996 20.200749,9.38975 28.682669,16.32603 23.32986,16.4026 58.43689,12.62877 77.2978,-8.93345 11.0712,-9.19002 29.24766,-10.35612 39.98438,-0.18164 1.42861,5.74761 -0.57027,11.82399 0.44335,17.70898 1.57493,31.93246 29.86607,60.00181 61.96544,60.66734 3.95658,0.80438 9.0054,-2.07182 11.29854,2.61031 6.36904,6.36904 12.73808,12.73808 19.10712,19.10712 -87.68099,0 -175.36198,0 -263.042971,0 0.180236,-32.7928 -0.415292,-65.61984 0.298829,-98.39062 6.282156,-6.20749 15.176552,-9.38852 23.964843,-8.91407 z M 468.70312,344.99023 c 6.7074,5.46581 -2.06051,17.94584 -9.37695,12.51172 -7.83012,-5.3495 -13.06175,-13.66464 -20.39701,-19.65678 -31.45868,-31.65161 -63.75058,-63.36485 -94.68893,-94.97798 4.21611,-3.1823 7.98258,-6.95798 11.16211,-11.17578 37.76693,37.76627 75.53386,75.53255 113.30078,113.29882 z M 57.255859,303.82617 c 61.855321,0.48747 123.764291,-4e-5 185.640621,0.17383 40.86329,0 81.72657,0 122.58985,0 6.66601,6.66602 13.33203,13.33203 19.99805,19.99805 -112.57238,-0.18582 -225.19571,0.38947 -337.736333,-0.30078 -9.531485,-2.49919 -8.598649,-19.6386 2.009765,-19.41602 2.321557,-0.31425 4.890031,-0.43471 7.498047,-0.45508 z M 136.71875,352 c -12.14779,45.33333 -24.29557,90.66667 -36.44336,136 -6.935546,0 -13.871093,0 -20.80664,0 12.147786,-45.33333 24.29557,-90.66667 36.44336,-136 6.93555,0 13.87109,0 20.80664,0 z m 150.44336,0 c 4.78971,17.8724 9.57943,35.74479 14.36914,53.61719 -50.06576,0 -100.13151,0 -150.19727,0 4.79037,-17.8724 9.58073,-35.74479 14.3711,-53.61719 40.48568,0 80.97135,0 121.45703,0 z m 49.79297,0 c 12.14778,45.33333 24.29557,90.66667 36.44336,136 -6.93555,0 -13.8711,0 -20.80664,0 -12.14779,-45.33333 -24.29558,-90.66667 -36.44336,-136 6.93554,0 13.87109,0 20.80664,0 z"
           id="XMLID_265_-3-6"
           inkscape:connector-curvature="0" />
      </g>
      <g
         id="XMLID_1078_-6-6"
         style="fill:#300030;fill-opacity:1;stroke:none;stroke-opacity:1"
         transform="matrix(0.45401812,0,0,0.45401812,-1546.9445,575.14511)">
        <path
           style="fill:#300030;fill-opacity:1;stroke:none;stroke-opacity:1"
           d="m 289.14453,-4.2871094 c -43.71786,0.7777172 -87.53071,-0.1230158 -131.26367,0.453125 -9.14027,1.3603065 -13.3788,11.7455427 -11.61524,20.0156254 0,6.609375 10e-6,13.21875 0,19.828125 -29.833,0.287689 -59.733418,-0.632108 -89.525386,0.46289 -8.938759,2.165483 -11.81808,12.64257 -10.30664,20.697266 -0.11068,72.941918 0.221357,146.296408 -0.166016,218.980468 -23.515631,1.945 -40.0048221,29.42898 -30.964844,51.17969 C 21.125961,343.56591 38.759796,354.33536 55.875,352 c 10.350911,0 20.701823,0 31.052734,0 -13.133029,49.93017 -27.223097,99.65572 -39.722656,149.72266 -0.50576,9.81109 10.250694,16.4086 19.200875,14.24286 16.581851,-0.55026 33.409125,1.31263 49.838187,-0.9245 10.40964,-4.42439 9.68222,-17.87054 12.96528,-26.84259 4.87551,-18.19375 9.75101,-36.3875 14.62652,-54.58124 55.06901,0 110.13802,0 165.20703,0 7.24534,25.31501 12.75884,51.24625 21.11719,76.16992 6.0538,9.00573 18.31409,5.90356 27.34961,6.11969 13.19364,-0.31071 26.69577,1.34229 39.70312,-1.02008 8.68642,-3.52123 10.28152,-14.85506 6.35344,-22.47872 -12.5475,-46.82611 -25.095,-93.65221 -37.6425,-140.47831 15.53489,-0.25193 31.46925,1.07486 46.76562,-0.90821 6.01934,6.92684 13.18856,12.49196 19.16144,19.55718 8.99058,10.56148 22.73332,18.46228 36.98309,15.68306 18.14604,-2.78017 32.50909,-20.71395 30.0918,-39.14649 -1.05404,-12.60392 -9.75092,-22.58406 -18.93991,-30.4399 -24.51807,-24.51808 -49.03615,-49.03616 -73.55423,-73.55424 -0.2858,-65.56187 0.5909,-131.18336 -0.43945,-196.708981 C 403.87934,37.413466 393.34894,34.464597 385.25586,36 c -26.24219,-0.0065 -52.51042,0.01302 -78.73633,-0.0098 -0.68585,-10.756969 1.92544,-22.09252 -1.46484,-32.5039059 -2.89427,-5.7713438 -9.82007,-8.0744893 -15.91016,-7.7734375 z M 278.30859,24 c -0.53188,3.84275 2.00804,8.707965 -0.29687,11.953125 -34.45906,0.07173 -69.08852,0.09106 -103.45508,-0.0098 0.52317,-3.822159 -2.00551,-8.671173 0.29688,-11.896484 34.47824,-0.109464 68.97171,-0.0155 103.45507,-0.04684 z m 100.12696,40 c -6.5e-4,50.33203 -10e-4,100.66406 -0.002,150.99609 -3.87794,-4.20938 -9.41988,-7.74646 -11.74218,-12.94531 3.11529,-30.15654 -22.35535,-59.51142 -52.58789,-61 -13.27263,-0.28166 -27.08704,-2.1621 -38.11524,-10.17187 -6.18285,-3.84897 -12.181,-11.67636 -20.41797,-8.86719 -7.41042,1.8881 -11.63117,9.66316 -10.71093,16.93164 -0.49256,1.64683 1.99505,6.75549 -1.16797,4.68164 -22.14077,-7.6299 -47.93993,-0.0794 -63.51368,17.12891 -13.06471,10.52894 -33.67982,7.72642 -44.11523,-5.1543 -16.31393,-14.82658 -41.283785,-19.00647 -61.626953,-10.62891 0,-26.99023 0,-53.980466 0,-80.9707 101.333333,0 202.666663,0 304.000003,0 z m -105.16016,97.33203 c 13.60546,6.33492 28.81312,7.15365 43.48828,8.29883 16.69606,3.82859 27.46681,24.21205 19.53906,39.95117 -6.50821,14.55121 -25.20663,20.8141 -39.54492,14.37891 -16.04202,-6.02404 -25.91802,-23.83919 -23.7207,-40.66016 0.14866,-7.18437 -0.30358,-15.40894 0.23828,-21.96875 z m -174.568359,7.36328 c 11.884399,0.15996 20.200749,9.38975 28.682669,16.32603 23.32986,16.4026 58.43689,12.62877 77.2978,-8.93345 11.0712,-9.19002 29.24766,-10.35612 39.98438,-0.18164 1.42861,5.74761 -0.57027,11.82399 0.44335,17.70898 1.57493,31.93246 29.86607,60.00181 61.96544,60.66734 3.95658,0.80438 9.0054,-2.07182 11.29854,2.61031 6.36904,6.36904 12.73808,12.73808 19.10712,19.10712 -87.68099,0 -175.36198,0 -263.042971,0 0.180236,-32.7928 -0.415292,-65.61984 0.298829,-98.39062 6.282156,-6.20749 15.176552,-9.38852 23.964843,-8.91407 z M 468.70312,344.99023 c 6.7074,5.46581 -2.06051,17.94584 -9.37695,12.51172 -7.83012,-5.3495 -13.06175,-13.66464 -20.39701,-19.65678 -31.45868,-31.65161 -63.75058,-63.36485 -94.68893,-94.97798 4.21611,-3.1823 7.98258,-6.95798 11.16211,-11.17578 37.76693,37.76627 75.53386,75.53255 113.30078,113.29882 z M 57.255859,303.82617 c 61.855321,0.48747 123.764291,-4e-5 185.640621,0.17383 40.86329,0 81.72657,0 122.58985,0 6.66601,6.66602 13.33203,13.33203 19.99805,19.99805 -112.57238,-0.18582 -225.19571,0.38947 -337.736333,-0.30078 -9.531485,-2.49919 -8.598649,-19.6386 2.009765,-19.41602 2.321557,-0.31425 4.890031,-0.43471 7.498047,-0.45508 z M 136.71875,352 c -12.14779,45.33333 -24.29557,90.66667 -36.44336,136 -6.935546,0 -13.871093,0 -20.80664,0 12.147786,-45.33333 24.29557,-90.66667 36.44336,-136 6.93555,0 13.87109,0 20.80664,0 z m 150.44336,0 c 4.78971,17.8724 9.57943,35.74479 14.36914,53.61719 -50.06576,0 -100.13151,0 -150.19727,0 4.79037,-17.8724 9.58073,-35.74479 14.3711,-53.61719 40.48568,0 80.97135,0 121.45703,0 z m 49.79297,0 c 12.14778,45.33333 24.29557,90.66667 36.44336,136 -6.93555,0 -13.8711,0 -20.80664,0 -12.14779,-45.33333 -24.29558,-90.66667 -36.44336,-136 6.93554,0 13.87109,0 20.80664,0 z"
           id="XMLID_265_-3-2"
           inkscape:connector-curvature="0" />
      </g>
      <g
         transform="matrix(0.45401813,0,0,0.45401813,-1546.9445,573.39362)"
         style="fill:#ff99ff;fill-opacity:1;stroke:none;stroke-opacity:1;opacity:0.479;filter:url(#filter5403)"
         id="g4678">
        <path
           inkscape:connector-curvature="0"
           id="path4676"
           d="m 289.14453,-4.2871094 c -43.71786,0.7777172 -87.53071,-0.1230158 -131.26367,0.453125 -9.14027,1.3603065 -13.3788,11.7455427 -11.61524,20.0156254 0,6.609375 10e-6,13.21875 0,19.828125 -29.833,0.287689 -59.733418,-0.632108 -89.525386,0.46289 -8.938759,2.165483 -11.81808,12.64257 -10.30664,20.697266 -0.11068,72.941918 0.221357,146.296408 -0.166016,218.980468 -23.515631,1.945 -40.0048221,29.42898 -30.964844,51.17969 C 21.125961,343.56591 38.759796,354.33536 55.875,352 c 10.350911,0 20.701823,0 31.052734,0 -13.133029,49.93017 -27.223097,99.65572 -39.722656,149.72266 -0.50576,9.81109 10.250694,16.4086 19.200875,14.24286 16.581851,-0.55026 33.409125,1.31263 49.838187,-0.9245 10.40964,-4.42439 9.68222,-17.87054 12.96528,-26.84259 4.87551,-18.19375 9.75101,-36.3875 14.62652,-54.58124 55.06901,0 110.13802,0 165.20703,0 7.24534,25.31501 12.75884,51.24625 21.11719,76.16992 6.0538,9.00573 18.31409,5.90356 27.34961,6.11969 13.19364,-0.31071 26.69577,1.34229 39.70312,-1.02008 8.68642,-3.52123 10.28152,-14.85506 6.35344,-22.47872 -12.5475,-46.82611 -25.095,-93.65221 -37.6425,-140.47831 15.53489,-0.25193 31.46925,1.07486 46.76562,-0.90821 6.01934,6.92684 13.18856,12.49196 19.16144,19.55718 8.99058,10.56148 22.73332,18.46228 36.98309,15.68306 18.14604,-2.78017 32.50909,-20.71395 30.0918,-39.14649 -1.05404,-12.60392 -9.75092,-22.58406 -18.93991,-30.4399 -24.51807,-24.51808 -49.03615,-49.03616 -73.55423,-73.55424 -0.2858,-65.56187 0.5909,-131.18336 -0.43945,-196.708981 C 403.87934,37.413466 393.34894,34.464597 385.25586,36 c -26.24219,-0.0065 -52.51042,0.01302 -78.73633,-0.0098 -0.68585,-10.756969 1.92544,-22.09252 -1.46484,-32.5039059 -2.89427,-5.7713438 -9.82007,-8.0744893 -15.91016,-7.7734375 z M 278.30859,24 c -0.53188,3.84275 2.00804,8.707965 -0.29687,11.953125 -34.45906,0.07173 -69.08852,0.09106 -103.45508,-0.0098 0.52317,-3.822159 -2.00551,-8.671173 0.29688,-11.896484 34.47824,-0.109464 68.97171,-0.0155 103.45507,-0.04684 z m 100.12696,40 c -6.5e-4,50.33203 -10e-4,100.66406 -0.002,150.99609 -3.87794,-4.20938 -9.41988,-7.74646 -11.74218,-12.94531 3.11529,-30.15654 -22.35535,-59.51142 -52.58789,-61 -13.27263,-0.28166 -27.08704,-2.1621 -38.11524,-10.17187 -6.18285,-3.84897 -12.181,-11.67636 -20.41797,-8.86719 -7.41042,1.8881 -11.63117,9.66316 -10.71093,16.93164 -0.49256,1.64683 1.99505,6.75549 -1.16797,4.68164 -22.14077,-7.6299 -47.93993,-0.0794 -63.51368,17.12891 -13.06471,10.52894 -33.67982,7.72642 -44.11523,-5.1543 -16.31393,-14.82658 -41.283785,-19.00647 -61.626953,-10.62891 0,-26.99023 0,-53.980466 0,-80.9707 101.333333,0 202.666663,0 304.000003,0 z m -105.16016,97.33203 c 13.60546,6.33492 28.81312,7.15365 43.48828,8.29883 16.69606,3.82859 27.46681,24.21205 19.53906,39.95117 -6.50821,14.55121 -25.20663,20.8141 -39.54492,14.37891 -16.04202,-6.02404 -25.91802,-23.83919 -23.7207,-40.66016 0.14866,-7.18437 -0.30358,-15.40894 0.23828,-21.96875 z m -174.568359,7.36328 c 11.884399,0.15996 20.200749,9.38975 28.682669,16.32603 23.32986,16.4026 58.43689,12.62877 77.2978,-8.93345 11.0712,-9.19002 29.24766,-10.35612 39.98438,-0.18164 1.42861,5.74761 -0.57027,11.82399 0.44335,17.70898 1.57493,31.93246 29.86607,60.00181 61.96544,60.66734 3.95658,0.80438 9.0054,-2.07182 11.29854,2.61031 6.36904,6.36904 12.73808,12.73808 19.10712,19.10712 -87.68099,0 -175.36198,0 -263.042971,0 0.180236,-32.7928 -0.415292,-65.61984 0.298829,-98.39062 6.282156,-6.20749 15.176552,-9.38852 23.964843,-8.91407 z M 468.70312,344.99023 c 6.7074,5.46581 -2.06051,17.94584 -9.37695,12.51172 -7.83012,-5.3495 -13.06175,-13.66464 -20.39701,-19.65678 -31.45868,-31.65161 -63.75058,-63.36485 -94.68893,-94.97798 4.21611,-3.1823 7.98258,-6.95798 11.16211,-11.17578 37.76693,37.76627 75.53386,75.53255 113.30078,113.29882 z M 57.255859,303.82617 c 61.855321,0.48747 123.764291,-4e-5 185.640621,0.17383 40.86329,0 81.72657,0 122.58985,0 6.66601,6.66602 13.33203,13.33203 19.99805,19.99805 -112.57238,-0.18582 -225.19571,0.38947 -337.736333,-0.30078 -9.531485,-2.49919 -8.598649,-19.6386 2.009765,-19.41602 2.321557,-0.31425 4.890031,-0.43471 7.498047,-0.45508 z M 136.71875,352 c -12.14779,45.33333 -24.29557,90.66667 -36.44336,136 -6.935546,0 -13.871093,0 -20.80664,0 12.147786,-45.33333 24.29557,-90.66667 36.44336,-136 6.93555,0 13.87109,0 20.80664,0 z m 150.44336,0 c 4.78971,17.8724 9.57943,35.74479 14.36914,53.61719 -50.06576,0 -100.13151,0 -150.19727,0 4.79037,-17.8724 9.58073,-35.74479 14.3711,-53.61719 40.48568,0 80.97135,0 121.45703,0 z m 49.79297,0 c 12.14778,45.33333 24.29557,90.66667 36.44336,136 -6.93555,0 -13.8711,0 -20.80664,0 -12.14779,-45.33333 -24.29558,-90.66667 -36.44336,-136 6.93554,0 13.87109,0 20.80664,0 z"
           style="fill:#ff99ff;fill-opacity:1;stroke:none;stroke-opacity:1" />
      </g>
      <g
         id="XMLID_1078_-6"
         style="fill:#ffe1ff;fill-opacity:1;stroke:none;stroke-opacity:1"
         transform="matrix(0.45401813,0,0,0.45401813,-1546.9445,573.39362)">
        <path
           style="fill:#ffe1ff;fill-opacity:1;stroke:none;stroke-opacity:1"
           d="m 289.14453,-4.2871094 c -43.71786,0.7777172 -87.53071,-0.1230158 -131.26367,0.453125 -9.14027,1.3603065 -13.3788,11.7455427 -11.61524,20.0156254 0,6.609375 10e-6,13.21875 0,19.828125 -29.833,0.287689 -59.733418,-0.632108 -89.525386,0.46289 -8.938759,2.165483 -11.81808,12.64257 -10.30664,20.697266 -0.11068,72.941918 0.221357,146.296408 -0.166016,218.980468 -23.515631,1.945 -40.0048221,29.42898 -30.964844,51.17969 C 21.125961,343.56591 38.759796,354.33536 55.875,352 c 10.350911,0 20.701823,0 31.052734,0 -13.133029,49.93017 -27.223097,99.65572 -39.722656,149.72266 -0.50576,9.81109 10.250694,16.4086 19.200875,14.24286 16.581851,-0.55026 33.409125,1.31263 49.838187,-0.9245 10.40964,-4.42439 9.68222,-17.87054 12.96528,-26.84259 4.87551,-18.19375 9.75101,-36.3875 14.62652,-54.58124 55.06901,0 110.13802,0 165.20703,0 7.24534,25.31501 12.75884,51.24625 21.11719,76.16992 6.0538,9.00573 18.31409,5.90356 27.34961,6.11969 13.19364,-0.31071 26.69577,1.34229 39.70312,-1.02008 8.68642,-3.52123 10.28152,-14.85506 6.35344,-22.47872 -12.5475,-46.82611 -25.095,-93.65221 -37.6425,-140.47831 15.53489,-0.25193 31.46925,1.07486 46.76562,-0.90821 6.01934,6.92684 13.18856,12.49196 19.16144,19.55718 8.99058,10.56148 22.73332,18.46228 36.98309,15.68306 18.14604,-2.78017 32.50909,-20.71395 30.0918,-39.14649 -1.05404,-12.60392 -9.75092,-22.58406 -18.93991,-30.4399 -24.51807,-24.51808 -49.03615,-49.03616 -73.55423,-73.55424 -0.2858,-65.56187 0.5909,-131.18336 -0.43945,-196.708981 C 403.87934,37.413466 393.34894,34.464597 385.25586,36 c -26.24219,-0.0065 -52.51042,0.01302 -78.73633,-0.0098 -0.68585,-10.756969 1.92544,-22.09252 -1.46484,-32.5039059 -2.89427,-5.7713438 -9.82007,-8.0744893 -15.91016,-7.7734375 z M 278.30859,24 c -0.53188,3.84275 2.00804,8.707965 -0.29687,11.953125 -34.45906,0.07173 -69.08852,0.09106 -103.45508,-0.0098 0.52317,-3.822159 -2.00551,-8.671173 0.29688,-11.896484 34.47824,-0.109464 68.97171,-0.0155 103.45507,-0.04684 z m 100.12696,40 c -6.5e-4,50.33203 -10e-4,100.66406 -0.002,150.99609 -3.87794,-4.20938 -9.41988,-7.74646 -11.74218,-12.94531 3.11529,-30.15654 -22.35535,-59.51142 -52.58789,-61 -13.27263,-0.28166 -27.08704,-2.1621 -38.11524,-10.17187 -6.18285,-3.84897 -12.181,-11.67636 -20.41797,-8.86719 -7.41042,1.8881 -11.63117,9.66316 -10.71093,16.93164 -0.49256,1.64683 1.99505,6.75549 -1.16797,4.68164 -22.14077,-7.6299 -47.93993,-0.0794 -63.51368,17.12891 -13.06471,10.52894 -33.67982,7.72642 -44.11523,-5.1543 -16.31393,-14.82658 -41.283785,-19.00647 -61.626953,-10.62891 0,-26.99023 0,-53.980466 0,-80.9707 101.333333,0 202.666663,0 304.000003,0 z m -105.16016,97.33203 c 13.60546,6.33492 28.81312,7.15365 43.48828,8.29883 16.69606,3.82859 27.46681,24.21205 19.53906,39.95117 -6.50821,14.55121 -25.20663,20.8141 -39.54492,14.37891 -16.04202,-6.02404 -25.91802,-23.83919 -23.7207,-40.66016 0.14866,-7.18437 -0.30358,-15.40894 0.23828,-21.96875 z m -174.568359,7.36328 c 11.884399,0.15996 20.200749,9.38975 28.682669,16.32603 23.32986,16.4026 58.43689,12.62877 77.2978,-8.93345 11.0712,-9.19002 29.24766,-10.35612 39.98438,-0.18164 1.42861,5.74761 -0.57027,11.82399 0.44335,17.70898 1.57493,31.93246 29.86607,60.00181 61.96544,60.66734 3.95658,0.80438 9.0054,-2.07182 11.29854,2.61031 6.36904,6.36904 12.73808,12.73808 19.10712,19.10712 -87.68099,0 -175.36198,0 -263.042971,0 0.180236,-32.7928 -0.415292,-65.61984 0.298829,-98.39062 6.282156,-6.20749 15.176552,-9.38852 23.964843,-8.91407 z M 468.70312,344.99023 c 6.7074,5.46581 -2.06051,17.94584 -9.37695,12.51172 -7.83012,-5.3495 -13.06175,-13.66464 -20.39701,-19.65678 -31.45868,-31.65161 -63.75058,-63.36485 -94.68893,-94.97798 4.21611,-3.1823 7.98258,-6.95798 11.16211,-11.17578 37.76693,37.76627 75.53386,75.53255 113.30078,113.29882 z M 57.255859,303.82617 c 61.855321,0.48747 123.764291,-4e-5 185.640621,0.17383 40.86329,0 81.72657,0 122.58985,0 6.66601,6.66602 13.33203,13.33203 19.99805,19.99805 -112.57238,-0.18582 -225.19571,0.38947 -337.736333,-0.30078 -9.531485,-2.49919 -8.598649,-19.6386 2.009765,-19.41602 2.321557,-0.31425 4.890031,-0.43471 7.498047,-0.45508 z M 136.71875,352 c -12.14779,45.33333 -24.29557,90.66667 -36.44336,136 -6.935546,0 -13.871093,0 -20.80664,0 12.147786,-45.33333 24.29557,-90.66667 36.44336,-136 6.93555,0 13.87109,0 20.80664,0 z m 150.44336,0 c 4.78971,17.8724 9.57943,35.74479 14.36914,53.61719 -50.06576,0 -100.13151,0 -150.19727,0 4.79037,-17.8724 9.58073,-35.74479 14.3711,-53.61719 40.48568,0 80.97135,0 121.45703,0 z m 49.79297,0 c 12.14778,45.33333 24.29557,90.66667 36.44336,136 -6.93555,0 -13.8711,0 -20.80664,0 -12.14779,-45.33333 -24.29558,-90.66667 -36.44336,-136 6.93554,0 13.87109,0 20.80664,0 z"
           id="XMLID_265_-3"
           inkscape:connector-curvature="0" />
      </g>
      <rect
         y="359.67075"
         x="-925.62115"
         height="329.99875"
         width="320.47339"
         id="rect839-2"
         style="opacity:1;fill:#001b2e;fill-opacity:1;stroke:#e84747;stroke-width:2.17210889;stroke-linecap:round;stroke-linejoin:round;stroke-miterlimit:4;stroke-dasharray:none;stroke-opacity:0.3940678;paint-order:normal" />
      <rect
         style="opacity:1;fill:#005980;fill-opacity:1;stroke:#e84747;stroke-width:2.17210889;stroke-linecap:round;stroke-linejoin:round;stroke-miterlimit:4;stroke-dasharray:none;stroke-opacity:0.3940678;paint-order:normal"
         id="rect4623"
         width="320.47339"
         height="329.99875"
         x="-925.62115"
         y="689.66949" />
      <rect
         style="opacity:1;fill:url(#linearGradient4975);fill-opacity:1;stroke:none;stroke-width:10.80042934;stroke-linecap:round;stroke-linejoin:round;stroke-miterlimit:4;stroke-dasharray:none;stroke-opacity:0.41525424;paint-order:normal"
         id="rect4568-6"
         width="365.77451"
         height="364.3457"
         x="-1626.4786"
         y="509.5408"
         ry="67.691406" />
      <rect
         style="opacity:1;fill:#ffebff;fill-opacity:1;stroke:none;stroke-width:28.8575592;stroke-linecap:round;stroke-linejoin:round;stroke-miterlimit:4;stroke-dasharray:none;stroke-opacity:0.41525424;paint-order:normal"
         id="rect4568-2"
         width="975.39868"
         height="975.39856"
         x="-272.86319"
         y="-228.259"
         ry="487.69928" />
      <g
         id="XMLID_1078_-6-6-6"
         style="fill:#001b2e;fill-opacity:1;stroke:none;stroke-opacity:1"
         transform="matrix(1.2107151,0,0,1.2154628,-58.866892,-51.419998)">
        <path
           style="fill:#001b2e;fill-opacity:1;stroke:none;stroke-opacity:1"
           d="m 289.14453,-4.2871094 c -43.71786,0.7777172 -87.53071,-0.1230158 -131.26367,0.453125 -9.14027,1.3603065 -13.3788,11.7455427 -11.61524,20.0156254 0,6.609375 10e-6,13.21875 0,19.828125 -29.833,0.287689 -59.733418,-0.632108 -89.525386,0.46289 -8.938759,2.165483 -11.81808,12.64257 -10.30664,20.697266 -0.11068,72.941918 0.221357,146.296408 -0.166016,218.980468 -23.515631,1.945 -40.0048221,29.42898 -30.964844,51.17969 C 21.125961,343.56591 38.759796,354.33536 55.875,352 c 10.350911,0 20.701823,0 31.052734,0 -13.133029,49.93017 -27.223097,99.65572 -39.722656,149.72266 -0.50576,9.81109 10.250694,16.4086 19.200875,14.24286 16.581851,-0.55026 33.409125,1.31263 49.838187,-0.9245 10.40964,-4.42439 9.68222,-17.87054 12.96528,-26.84259 4.87551,-18.19375 9.75101,-36.3875 14.62652,-54.58124 55.06901,0 110.13802,0 165.20703,0 7.24534,25.31501 12.75884,51.24625 21.11719,76.16992 6.0538,9.00573 18.31409,5.90356 27.34961,6.11969 13.19364,-0.31071 26.69577,1.34229 39.70312,-1.02008 8.68642,-3.52123 10.28152,-14.85506 6.35344,-22.47872 -12.5475,-46.82611 -25.095,-93.65221 -37.6425,-140.47831 15.53489,-0.25193 31.46925,1.07486 46.76562,-0.90821 6.01934,6.92684 13.18856,12.49196 19.16144,19.55718 8.99058,10.56148 22.73332,18.46228 36.98309,15.68306 18.14604,-2.78017 32.50909,-20.71395 30.0918,-39.14649 -1.05404,-12.60392 -9.75092,-22.58406 -18.93991,-30.4399 -24.51807,-24.51808 -49.03615,-49.03616 -73.55423,-73.55424 -0.2858,-65.56187 0.5909,-131.18336 -0.43945,-196.708981 C 403.87934,37.413466 393.34894,34.464597 385.25586,36 c -26.24219,-0.0065 -52.51042,0.01302 -78.73633,-0.0098 -0.68585,-10.756969 1.92544,-22.09252 -1.46484,-32.5039059 -2.89427,-5.7713438 -9.82007,-8.0744893 -15.91016,-7.7734375 z M 278.30859,24 c -0.53188,3.84275 2.00804,8.707965 -0.29687,11.953125 -34.45906,0.07173 -69.08852,0.09106 -103.45508,-0.0098 0.52317,-3.822159 -2.00551,-8.671173 0.29688,-11.896484 34.47824,-0.109464 68.97171,-0.0155 103.45507,-0.04684 z m 100.12696,40 c -6.5e-4,50.33203 -10e-4,100.66406 -0.002,150.99609 -3.87794,-4.20938 -9.41988,-7.74646 -11.74218,-12.94531 3.11529,-30.15654 -22.35535,-59.51142 -52.58789,-61 -13.27263,-0.28166 -27.08704,-2.1621 -38.11524,-10.17187 -6.18285,-3.84897 -12.181,-11.67636 -20.41797,-8.86719 -7.41042,1.8881 -11.63117,9.66316 -10.71093,16.93164 -0.49256,1.64683 1.99505,6.75549 -1.16797,4.68164 -22.14077,-7.6299 -47.93993,-0.0794 -63.51368,17.12891 -13.06471,10.52894 -33.67982,7.72642 -44.11523,-5.1543 -16.31393,-14.82658 -41.283785,-19.00647 -61.626953,-10.62891 0,-26.99023 0,-53.980466 0,-80.9707 101.333333,0 202.666663,0 304.000003,0 z m -105.16016,97.33203 c 13.60546,6.33492 28.81312,7.15365 43.48828,8.29883 16.69606,3.82859 27.46681,24.21205 19.53906,39.95117 -6.50821,14.55121 -25.20663,20.8141 -39.54492,14.37891 -16.04202,-6.02404 -25.91802,-23.83919 -23.7207,-40.66016 0.14866,-7.18437 -0.30358,-15.40894 0.23828,-21.96875 z m -174.568359,7.36328 c 11.884399,0.15996 20.200749,9.38975 28.682669,16.32603 23.32986,16.4026 58.43689,12.62877 77.2978,-8.93345 11.0712,-9.19002 29.24766,-10.35612 39.98438,-0.18164 1.42861,5.74761 -0.57027,11.82399 0.44335,17.70898 1.57493,31.93246 29.86607,60.00181 61.96544,60.66734 3.95658,0.80438 9.0054,-2.07182 11.29854,2.61031 6.36904,6.36904 12.73808,12.73808 19.10712,19.10712 -87.68099,0 -175.36198,0 -263.042971,0 0.180236,-32.7928 -0.415292,-65.61984 0.298829,-98.39062 6.282156,-6.20749 15.176552,-9.38852 23.964843,-8.91407 z M 468.70312,344.99023 c 6.7074,5.46581 -2.06051,17.94584 -9.37695,12.51172 -7.83012,-5.3495 -13.06175,-13.66464 -20.39701,-19.65678 -31.45868,-31.65161 -63.75058,-63.36485 -94.68893,-94.97798 4.21611,-3.1823 7.98258,-6.95798 11.16211,-11.17578 37.76693,37.76627 75.53386,75.53255 113.30078,113.29882 z M 57.255859,303.82617 c 61.855321,0.48747 123.764291,-4e-5 185.640621,0.17383 40.86329,0 81.72657,0 122.58985,0 6.66601,6.66602 13.33203,13.33203 19.99805,19.99805 -112.57238,-0.18582 -225.19571,0.38947 -337.736333,-0.30078 -9.531485,-2.49919 -8.598649,-19.6386 2.009765,-19.41602 2.321557,-0.31425 4.890031,-0.43471 7.498047,-0.45508 z M 136.71875,352 c -12.14779,45.33333 -24.29557,90.66667 -36.44336,136 -6.935546,0 -13.871093,0 -20.80664,0 12.147786,-45.33333 24.29557,-90.66667 36.44336,-136 6.93555,0 13.87109,0 20.80664,0 z m 150.44336,0 c 4.78971,17.8724 9.57943,35.74479 14.36914,53.61719 -50.06576,0 -100.13151,0 -150.19727,0 4.79037,-17.8724 9.58073,-35.74479 14.3711,-53.61719 40.48568,0 80.97135,0 121.45703,0 z m 49.79297,0 c 12.14778,45.33333 24.29557,90.66667 36.44336,136 -6.93555,0 -13.8711,0 -20.80664,0 -12.14779,-45.33333 -24.29558,-90.66667 -36.44336,-136 6.93554,0 13.87109,0 20.80664,0 z"
           id="XMLID_265_-3-2-0"
           inkscape:connector-curvature="0" />
      </g>
      <g
         id="XMLID_1078_-6-4-6"
         style="fill:#99e0ff;fill-opacity:1;stroke:none;stroke-opacity:1"
         transform="matrix(1.2107151,0,0,1.2154628,-58.866892,-59.0403)">
        <path
           style="fill:#99e0ff;fill-opacity:1;stroke:none;stroke-opacity:1"
           d="m 289.14453,-4.2871094 c -43.71786,0.7777172 -87.53071,-0.1230158 -131.26367,0.453125 -9.14027,1.3603065 -13.3788,11.7455427 -11.61524,20.0156254 0,6.609375 10e-6,13.21875 0,19.828125 -29.833,0.287689 -59.733418,-0.632108 -89.525386,0.46289 -8.938759,2.165483 -11.81808,12.64257 -10.30664,20.697266 -0.11068,72.941918 0.221357,146.296408 -0.166016,218.980468 -23.515631,1.945 -40.0048221,29.42898 -30.964844,51.17969 C 21.125961,343.56591 38.759796,354.33536 55.875,352 c 10.350911,0 20.701823,0 31.052734,0 -13.133029,49.93017 -27.223097,99.65572 -39.722656,149.72266 -0.50576,9.81109 10.250694,16.4086 19.200875,14.24286 16.581851,-0.55026 33.409125,1.31263 49.838187,-0.9245 10.40964,-4.42439 9.68222,-17.87054 12.96528,-26.84259 4.87551,-18.19375 9.75101,-36.3875 14.62652,-54.58124 55.06901,0 110.13802,0 165.20703,0 7.24534,25.31501 12.75884,51.24625 21.11719,76.16992 6.0538,9.00573 18.31409,5.90356 27.34961,6.11969 13.19364,-0.31071 26.69577,1.34229 39.70312,-1.02008 8.68642,-3.52123 10.28152,-14.85506 6.35344,-22.47872 -12.5475,-46.82611 -25.095,-93.65221 -37.6425,-140.47831 15.53489,-0.25193 31.46925,1.07486 46.76562,-0.90821 6.01934,6.92684 13.18856,12.49196 19.16144,19.55718 8.99058,10.56148 22.73332,18.46228 36.98309,15.68306 18.14604,-2.78017 32.50909,-20.71395 30.0918,-39.14649 -1.05404,-12.60392 -9.75092,-22.58406 -18.93991,-30.4399 -24.51807,-24.51808 -49.03615,-49.03616 -73.55423,-73.55424 -0.2858,-65.56187 0.5909,-131.18336 -0.43945,-196.708981 C 403.87934,37.413466 393.34894,34.464597 385.25586,36 c -26.24219,-0.0065 -52.51042,0.01302 -78.73633,-0.0098 -0.68585,-10.756969 1.92544,-22.09252 -1.46484,-32.5039059 -2.89427,-5.7713438 -9.82007,-8.0744893 -15.91016,-7.7734375 z M 278.30859,24 c -0.53188,3.84275 2.00804,8.707965 -0.29687,11.953125 -34.45906,0.07173 -69.08852,0.09106 -103.45508,-0.0098 0.52317,-3.822159 -2.00551,-8.671173 0.29688,-11.896484 34.47824,-0.109464 68.97171,-0.0155 103.45507,-0.04684 z m 100.12696,40 c -6.5e-4,50.33203 -10e-4,100.66406 -0.002,150.99609 -3.87794,-4.20938 -9.41988,-7.74646 -11.74218,-12.94531 3.11529,-30.15654 -22.35535,-59.51142 -52.58789,-61 -13.27263,-0.28166 -27.08704,-2.1621 -38.11524,-10.17187 -6.18285,-3.84897 -12.181,-11.67636 -20.41797,-8.86719 -7.41042,1.8881 -11.63117,9.66316 -10.71093,16.93164 -0.49256,1.64683 1.99505,6.75549 -1.16797,4.68164 -22.14077,-7.6299 -47.93993,-0.0794 -63.51368,17.12891 -13.06471,10.52894 -33.67982,7.72642 -44.11523,-5.1543 -16.31393,-14.82658 -41.283785,-19.00647 -61.626953,-10.62891 0,-26.99023 0,-53.980466 0,-80.9707 101.333333,0 202.666663,0 304.000003,0 z m -105.16016,97.33203 c 13.60546,6.33492 28.81312,7.15365 43.48828,8.29883 16.69606,3.82859 27.46681,24.21205 19.53906,39.95117 -6.50821,14.55121 -25.20663,20.8141 -39.54492,14.37891 -16.04202,-6.02404 -25.91802,-23.83919 -23.7207,-40.66016 0.14866,-7.18437 -0.30358,-15.40894 0.23828,-21.96875 z m -174.568359,7.36328 c 11.884399,0.15996 20.200749,9.38975 28.682669,16.32603 23.32986,16.4026 58.43689,12.62877 77.2978,-8.93345 11.0712,-9.19002 29.24766,-10.35612 39.98438,-0.18164 1.42861,5.74761 -0.57027,11.82399 0.44335,17.70898 1.57493,31.93246 29.86607,60.00181 61.96544,60.66734 3.95658,0.80438 9.0054,-2.07182 11.29854,2.61031 6.36904,6.36904 12.73808,12.73808 19.10712,19.10712 -87.68099,0 -175.36198,0 -263.042971,0 0.180236,-32.7928 -0.415292,-65.61984 0.298829,-98.39062 6.282156,-6.20749 15.176552,-9.38852 23.964843,-8.91407 z M 468.70312,344.99023 c 6.7074,5.46581 -2.06051,17.94584 -9.37695,12.51172 -7.83012,-5.3495 -13.06175,-13.66464 -20.39701,-19.65678 -31.45868,-31.65161 -63.75058,-63.36485 -94.68893,-94.97798 4.21611,-3.1823 7.98258,-6.95798 11.16211,-11.17578 37.76693,37.76627 75.53386,75.53255 113.30078,113.29882 z M 57.255859,303.82617 c 61.855321,0.48747 123.764291,-4e-5 185.640621,0.17383 40.86329,0 81.72657,0 122.58985,0 6.66601,6.66602 13.33203,13.33203 19.99805,19.99805 -112.57238,-0.18582 -225.19571,0.38947 -337.736333,-0.30078 -9.531485,-2.49919 -8.598649,-19.6386 2.009765,-19.41602 2.321557,-0.31425 4.890031,-0.43471 7.498047,-0.45508 z M 136.71875,352 c -12.14779,45.33333 -24.29557,90.66667 -36.44336,136 -6.935546,0 -13.871093,0 -20.80664,0 12.147786,-45.33333 24.29557,-90.66667 36.44336,-136 6.93555,0 13.87109,0 20.80664,0 z m 150.44336,0 c 4.78971,17.8724 9.57943,35.74479 14.36914,53.61719 -50.06576,0 -100.13151,0 -150.19727,0 4.79037,-17.8724 9.58073,-35.74479 14.3711,-53.61719 40.48568,0 80.97135,0 121.45703,0 z m 49.79297,0 c 12.14778,45.33333 24.29557,90.66667 36.44336,136 -6.93555,0 -13.8711,0 -20.80664,0 -12.14779,-45.33333 -24.29558,-90.66667 -36.44336,-136 6.93554,0 13.87109,0 20.80664,0 z"
           id="XMLID_265_-3-6-1"
           inkscape:connector-curvature="0" />
      </g>
      <path
         style="fill:#001b2e;fill-opacity:1;stroke:none;stroke-width:1.21308661;stroke-opacity:1;filter:url(#filter5544);opacity:0.649"
         d="m 290.61039,-65.653151 c -54.07656,1.28161 -108.23523,-0.72686 -162.27149,1.03711 -12.67377,3.20189 -18.18463,18.18632 -15.89648,30.04297 -1.26331,5.89932 2.31208,12.626899 -0.7793,17.964839 -35.359,0.63151 -70.90657,-1.61105 -106.14843,1.25195 -12.4856198,4.448339 -15.93998,19.8610194 -13.8437498,31.64258 -0.10657,86.497352 0.23591,172.995312 -0.18165,259.492192 C -39.77995,281.1292 -59.0797,320.46836 -43.6572,348.36053 c 9.63508,20.01055 33.18869,31.31754 54.89649,27.92772 9.38281,0 18.76562,0 28.14844,0 C 24.02408,436.14268 6.14346,495.45656 -7.3896198,555.71402 -6.73359,569.70454 9.1295,578.85233 22.03811,575.53826 c 20.73435,-1.08734 42.11275,2.91545 62.4043,-2.47071 12.53562,-7.17278 12.54601,-23.42504 16.3457,-35.63673 5.71891,-20.592 11.05294,-41.30274 16.62696,-61.93943 64.42838,0 128.85678,0 193.28516,0 8.9874,30.52274 14.50146,62.27038 26.15625,91.89258 8.4733,10.8759 23.98385,8.47227 36.01366,8.11131 17.27584,-0.83976 35.3526,2.89815 52.05471,-2.75586 11.56836,-6.67104 12.71802,-22.90783 7.14836,-33.90953 -14.47264,-54.22026 -28.94527,-108.44052 -43.4179,-162.66078 16.38295,0.01 32.83968,1.0152 49.16406,-0.83789 11.46614,10.84914 21.48377,23.26833 33.63672,33.35157 15.86882,11.93112 39.20556,13.45252 55.63867,1.75196 19.81389,-12.94506 28.09035,-41.59599 15.88282,-62.40822 -9.86361,-17.66106 -27.51329,-28.75846 -40.41344,-43.8881 -22.06595,-22.15187 -44.13193,-44.30375 -66.19789,-66.45565 -0.50153,-79.66221 1.07477,-159.403895 -0.83007,-239.0156226 -3.43251,-12.8531094 -18.89841,-17.7125394 -30.80666,-15.3261694 -29.83396,-0.0334 -59.66816,0.0747 -89.50193,-0.0683 -0.39369,-13.619759 3.67921,-29.441649 -5.03321,-41.337899 -4.91074,-5.39129 -12.44384,-7.72018 -19.58399,-7.58789 z m -135.31055,43.054689 c 38.24253,0.57695 76.62597,-0.059 114.90778,0.33259 3.42434,-1.096069 3.08375,4.17549 2.81683,5.851 -39.11147,-0.9177 -78.37855,0.5611 -117.53905,-0.70117 0.12935,-1.41006 -1.75456,-5.07686 -0.18556,-5.48242 z m 238.33399,48.83398 c -0.0474,56.192574 0.0926,112.802782 -0.0722,168.734362 -3.95759,-2.87357 -6.3437,-7.46452 -4.99023,-12.34374 -0.19857,-39.14113 -36.74417,-74.17594 -75.85547,-71.87889 -17.3415,-0.57698 -34.05048,-7.36514 -46.8086,-19.425793 -10.0018,-7.565456 -25.8112,-3.87881 -31.21093,7.482419 -2.29824,4.323934 -3.18989,9.311514 -2.92189,14.177744 -28.11774,-7.74912 -59.17877,3.35805 -78.57618,24.49413 -15.11223,10.34441 -36.90266,4.78611 -47.59178,-9.34961 C 86.29393,111.80199 58.5145,106.4341 34.41898,113.92693 c 0,-29.230474 0,-58.460942 0,-87.691412 119.73827,0 239.47656,0 359.21485,0 z M 275.36234,146.85271 c 16.34457,6.28717 34.21576,5.68072 51.13866,8.94141 18.40185,7.09226 26.08548,33.935 11.76173,48.49023 -12.73794,14.44783 -37.0878,13.36956 -50.1582,-0.10554 -11.73007,-10.82353 -15.35083,-27.84692 -13.20116,-43.18555 -0.0208,-4.77728 -0.13698,-9.55492 -0.0371,-14.33203 z m -216.99805,6.5586 c 19.33358,0.34476 29.09491,20.75045 46.36133,26.39452 29.43231,12.65402 66.3806,4.45884 87.50196,-19.68164 11.391,-8.16283 29.00024,-9.64869 39.79101,0.32228 -0.3436,15.39341 -0.30011,31.31782 6.30494,45.60177 13.20734,31.63822 47.1736,54.44239 81.80835,51.41971 6.52054,5.23581 12.16587,13.18685 18.20507,17.69922 -101.19898,-0.26662 -202.61202,-0.0402 -303.89258,-0.11526 0.14725,-37.73542 -0.45952,-75.47546 0.31055,-113.20704 6.41031,-5.71675 15.0643,-8.6174 23.60937,-8.43358 z m 445.85157,213.05858 c 5.22995,4.00655 -3.58832,13.36702 -7.47852,7.05275 -13.17819,-11.98497 -24.81456,-25.55152 -37.88035,-37.66619 -31.90206,-32.07324 -64.03226,-63.92001 -95.6509,-96.27522 2.60535,-2.2679 5.04832,-4.72255 7.30469,-7.33789 44.56835,44.74218 89.13672,89.48437 133.70508,134.22655 z M 9.25297,317.73553 c 123.76245,0.53395 247.52612,0.0284 371.28906,0.21093 5.12371,5.14323 10.24739,10.28645 15.37109,15.42968 -132.73997,-0.36189 -265.57189,0.85688 -398.2539,-0.65624 -6.2120298,-3.40172 -3.93793,-15.9785 3.97656,-14.58594 2.52811,-0.29064 5.07479,-0.3634 7.61719,-0.39843 z m 90.39453,58.55272 c -14.02208,51.98576 -27.62312,104.56928 -41.90821,156.18164 -5.23951,-0.53344 -10.78857,1.73749 -15.79882,-0.084 13.88932,-52.03255 27.77864,-104.06512 41.66797,-156.09766 5.34635,0 10.6927,0 16.03906,0 z m 184.50781,0 c 5.01107,18.76953 10.02214,37.53906 15.0332,56.30861 -56.77669,0 -113.55339,0 -170.33008,0 5.01172,-18.76955 10.02344,-37.53908 15.03515,-56.30861 46.75391,0 93.50782,0 140.26173,0 z m 60.28516,0 c 13.89322,52.04884 27.78644,104.09766 41.67968,156.14649 -5.36202,-0.48377 -11.56344,2.41132 -16.28712,-0.92382 -13.81054,-51.7409 -27.62108,-103.48179 -41.43164,-155.22267 5.34637,0 10.69272,0 16.03908,0 z"
         id="path5478"
         inkscape:connector-curvature="0" />
      <g
         id="XMLID_1078_-6-9"
         style="fill:#005980;fill-opacity:1;stroke:none;stroke-opacity:1"
         transform="matrix(1.2107151,0,0,1.2154628,-58.866892,-55.230149)">
        <path
           style="fill:#005980;fill-opacity:1;stroke:none;stroke-opacity:1"
           d="m 289.14453,-4.2871094 c -43.71786,0.7777172 -87.53071,-0.1230158 -131.26367,0.453125 -9.14027,1.3603065 -13.3788,11.7455427 -11.61524,20.0156254 0,6.609375 10e-6,13.21875 0,19.828125 -29.833,0.287689 -59.733418,-0.632108 -89.525386,0.46289 -8.938759,2.165483 -11.81808,12.64257 -10.30664,20.697266 -0.11068,72.941918 0.221357,146.296408 -0.166016,218.980468 -23.515631,1.945 -40.0048221,29.42898 -30.964844,51.17969 C 21.125961,343.56591 38.759796,354.33536 55.875,352 c 10.350911,0 20.701823,0 31.052734,0 -13.133029,49.93017 -27.223097,99.65572 -39.722656,149.72266 -0.50576,9.81109 10.250694,16.4086 19.200875,14.24286 16.581851,-0.55026 33.409125,1.31263 49.838187,-0.9245 10.40964,-4.42439 9.68222,-17.87054 12.96528,-26.84259 4.87551,-18.19375 9.75101,-36.3875 14.62652,-54.58124 55.06901,0 110.13802,0 165.20703,0 7.24534,25.31501 12.75884,51.24625 21.11719,76.16992 6.0538,9.00573 18.31409,5.90356 27.34961,6.11969 13.19364,-0.31071 26.69577,1.34229 39.70312,-1.02008 8.68642,-3.52123 10.28152,-14.85506 6.35344,-22.47872 -12.5475,-46.82611 -25.095,-93.65221 -37.6425,-140.47831 15.53489,-0.25193 31.46925,1.07486 46.76562,-0.90821 6.01934,6.92684 13.18856,12.49196 19.16144,19.55718 8.99058,10.56148 22.73332,18.46228 36.98309,15.68306 18.14604,-2.78017 32.50909,-20.71395 30.0918,-39.14649 -1.05404,-12.60392 -9.75092,-22.58406 -18.93991,-30.4399 -24.51807,-24.51808 -49.03615,-49.03616 -73.55423,-73.55424 -0.2858,-65.56187 0.5909,-131.18336 -0.43945,-196.708981 C 403.87934,37.413466 393.34894,34.464597 385.25586,36 c -26.24219,-0.0065 -52.51042,0.01302 -78.73633,-0.0098 -0.68585,-10.756969 1.92544,-22.09252 -1.46484,-32.5039059 -2.89427,-5.7713438 -9.82007,-8.0744893 -15.91016,-7.7734375 z M 278.30859,24 c -0.53188,3.84275 2.00804,8.707965 -0.29687,11.953125 -34.45906,0.07173 -69.08852,0.09106 -103.45508,-0.0098 0.52317,-3.822159 -2.00551,-8.671173 0.29688,-11.896484 34.47824,-0.109464 68.97171,-0.0155 103.45507,-0.04684 z m 100.12696,40 c -6.5e-4,50.33203 -10e-4,100.66406 -0.002,150.99609 -3.87794,-4.20938 -9.41988,-7.74646 -11.74218,-12.94531 3.11529,-30.15654 -22.35535,-59.51142 -52.58789,-61 -13.27263,-0.28166 -27.08704,-2.1621 -38.11524,-10.17187 -6.18285,-3.84897 -12.181,-11.67636 -20.41797,-8.86719 -7.41042,1.8881 -11.63117,9.66316 -10.71093,16.93164 -0.49256,1.64683 1.99505,6.75549 -1.16797,4.68164 -22.14077,-7.6299 -47.93993,-0.0794 -63.51368,17.12891 -13.06471,10.52894 -33.67982,7.72642 -44.11523,-5.1543 -16.31393,-14.82658 -41.283785,-19.00647 -61.626953,-10.62891 0,-26.99023 0,-53.980466 0,-80.9707 101.333333,0 202.666663,0 304.000003,0 z m -105.16016,97.33203 c 13.60546,6.33492 28.81312,7.15365 43.48828,8.29883 16.69606,3.82859 27.46681,24.21205 19.53906,39.95117 -6.50821,14.55121 -25.20663,20.8141 -39.54492,14.37891 -16.04202,-6.02404 -25.91802,-23.83919 -23.7207,-40.66016 0.14866,-7.18437 -0.30358,-15.40894 0.23828,-21.96875 z m -174.568359,7.36328 c 11.884399,0.15996 20.200749,9.38975 28.682669,16.32603 23.32986,16.4026 58.43689,12.62877 77.2978,-8.93345 11.0712,-9.19002 29.24766,-10.35612 39.98438,-0.18164 1.42861,5.74761 -0.57027,11.82399 0.44335,17.70898 1.57493,31.93246 29.86607,60.00181 61.96544,60.66734 3.95658,0.80438 9.0054,-2.07182 11.29854,2.61031 6.36904,6.36904 12.73808,12.73808 19.10712,19.10712 -87.68099,0 -175.36198,0 -263.042971,0 0.180236,-32.7928 -0.415292,-65.61984 0.298829,-98.39062 6.282156,-6.20749 15.176552,-9.38852 23.964843,-8.91407 z M 468.70312,344.99023 c 6.7074,5.46581 -2.06051,17.94584 -9.37695,12.51172 -7.83012,-5.3495 -13.06175,-13.66464 -20.39701,-19.65678 -31.45868,-31.65161 -63.75058,-63.36485 -94.68893,-94.97798 4.21611,-3.1823 7.98258,-6.95798 11.16211,-11.17578 37.76693,37.76627 75.53386,75.53255 113.30078,113.29882 z M 57.255859,303.82617 c 61.855321,0.48747 123.764291,-4e-5 185.640621,0.17383 40.86329,0 81.72657,0 122.58985,0 6.66601,6.66602 13.33203,13.33203 19.99805,19.99805 -112.57238,-0.18582 -225.19571,0.38947 -337.736333,-0.30078 -9.531485,-2.49919 -8.598649,-19.6386 2.009765,-19.41602 2.321557,-0.31425 4.890031,-0.43471 7.498047,-0.45508 z M 136.71875,352 c -12.14779,45.33333 -24.29557,90.66667 -36.44336,136 -6.935546,0 -13.871093,0 -20.80664,0 12.147786,-45.33333 24.29557,-90.66667 36.44336,-136 6.93555,0 13.87109,0 20.80664,0 z m 150.44336,0 c 4.78971,17.8724 9.57943,35.74479 14.36914,53.61719 -50.06576,0 -100.13151,0 -150.19727,0 4.79037,-17.8724 9.58073,-35.74479 14.3711,-53.61719 40.48568,0 80.97135,0 121.45703,0 z m 49.79297,0 c 12.14778,45.33333 24.29557,90.66667 36.44336,136 -6.93555,0 -13.8711,0 -20.80664,0 -12.14779,-45.33333 -24.29558,-90.66667 -36.44336,-136 6.93554,0 13.87109,0 20.80664,0 z"
           id="XMLID_265_-3-1"
           inkscape:connector-curvature="0" />
      </g>
      <g
         transform="matrix(1.2107151,0,0,1.2154628,-60.771967,-55.230149)"
         style="fill:#ffe1ff;fill-opacity:1;stroke:none;stroke-opacity:1"
         id="g5480" />
      <rect
         ry="487.69928"
         y="-228.259"
         x="-272.86319"
         height="975.39856"
         width="975.39868"
         id="rect5568"
         style="opacity:1;fill:url(#linearGradient5576);fill-opacity:1;stroke:none;stroke-width:28.8575592;stroke-linecap:round;stroke-linejoin:round;stroke-miterlimit:4;stroke-dasharray:none;stroke-opacity:0.41525424;paint-order:normal" />
    </g>
  </g>
</svg>
