<?xml version="1.0" encoding="UTF-8" standalone="no"?>
<!-- Created with Inkscape (http://www.inkscape.org/) -->

<svg
   xmlns:dc="http://purl.org/dc/elements/1.1/"
   xmlns:cc="http://creativecommons.org/ns#"
   xmlns:rdf="http://www.w3.org/1999/02/22-rdf-syntax-ns#"
   xmlns:svg="http://www.w3.org/2000/svg"
   xmlns="http://www.w3.org/2000/svg"
   xmlns:xlink="http://www.w3.org/1999/xlink"
   xmlns:sodipodi="http://sodipodi.sourceforge.net/DTD/sodipodi-0.dtd"
   xmlns:inkscape="http://www.inkscape.org/namespaces/inkscape"
   width="512"
   height="512"
   viewBox="0 0 512 512"
   version="1.1"
   id="SVGRoot"
   inkscape:version="0.92.3 (2405546, 2018-03-11)"
   sodipodi:docname="logo.svg">
  <sodipodi:namedview
     id="base"
     pagecolor="#ffffff"
     bordercolor="#666666"
     borderopacity="1.0"
     inkscape:pageopacity="0.0"
     inkscape:pageshadow="2"
     inkscape:zoom="1.4142136"
     inkscape:cx="79.109435"
     inkscape:cy="307.44242"
     inkscape:document-units="px"
     inkscape:current-layer="XMLID_1580_"
     showgrid="false"
     inkscape:window-width="1920"
     inkscape:window-height="1017"
     inkscape:window-x="1912"
     inkscape:window-y="55"
     inkscape:window-maximized="1"
     inkscape:grid-bbox="true" />
  <defs
     id="defs26">
    <linearGradient
       inkscape:collect="always"
       id="linearGradient264">
      <stop
         style="stop-color:#ffebff;stop-opacity:1"
         offset="0"
         id="stop260" />
      <stop
         style="stop-color:#99e0ff;stop-opacity:1"
         offset="1"
         id="stop262" />
    </linearGradient>
    <linearGradient
       inkscape:collect="always"
       xlink:href="#linearGradient264"
       id="linearGradient266"
       x1="93"
       y1="-171"
       x2="460"
       y2="154"
       gradientUnits="userSpaceOnUse" />
  </defs>
  <metadata
     id="metadata29">
    <rdf:RDF>
      <cc:Work
         rdf:about="">
        <dc:format>image/svg+xml</dc:format>
        <dc:type
           rdf:resource="http://purl.org/dc/dcmitype/StillImage" />
        <dc:title />
      </cc:Work>
    </rdf:RDF>
  </metadata>
  <g
     id="layer1"
     inkscape:groupmode="layer"
     inkscape:label="Calque 1"
     transform="translate(0,256)">
    <path
       style="opacity:1;fill:url(#linearGradient266);fill-opacity:1;stroke:none;stroke-width:6.55636454;stroke-miterlimit:4;stroke-dasharray:none;stroke-opacity:0.4908257"
       id="path42"
       sodipodi:type="arc"
       sodipodi:cx="256"
       sodipodi:cy="1.9999812"
       sodipodi:rx="252.72182"
       sodipodi:ry="252.72182"
       sodipodi:start="0"
       sodipodi:end="6.2193933"
       sodipodi:open="true"
       d="M 508.72182,1.9999812 A 252.72182,252.72182 0 0 1 260.03024,254.68966 252.72182,252.72182 0 0 1 3.406726,10.05943 252.72182,252.72182 0 0 1 243.91339,-250.43264 252.72182,252.72182 0 0 1 508.20778,-14.110719" />
    <g
       id="XMLID_1580_"
       transform="matrix(0.52491356,0,0,0.52491356,142.76068,-134.46483)">
      <path
         d="M 392.433,248.922 V 50 h -332 v 240 h 310.852"
         id="XMLID_777_"
         inkscape:connector-curvature="0"
         style="fill:#00ffff;fill-opacity:0.05045872" />
      <g
         id="g118"
         style="fill:#ffcd69">
        <path
           d="M 403.079,338 H 49.788 c -12.622,0 -22.854,-11.378 -22.854,-24 0,-12.622 10.232,-24 22.854,-24 h 353.291 c 12.622,0 22.854,10.232 22.854,22.854 v 2.291 c 0,12.623 -10.232,22.855 -22.854,22.855 z"
           id="XMLID_1500_"
           inkscape:connector-curvature="0"
           style="fill:none" />
        <path
           d="M 391.642,502 347.699,338 h -49.793 l 43.943,164 z"
           id="XMLID_1498_"
           inkscape:connector-curvature="0"
           style="fill:none" />
        <path
           d="M 111.018,502 154.961,338 H 105.168 L 61.225,502 Z"
           id="XMLID_1497_"
           inkscape:connector-curvature="0"
           style="fill:none" />
        <path
           d="M 160.267,10 H 292.6 V 50 H 160.267 Z"
           id="XMLID_1461_"
           inkscape:connector-curvature="0"
           style="fill:none" />
      </g>
      <g
         id="XMLID_775_">
        <path
           d="M 478.638,335.127 354.819,211.307 323.706,242.42 447.525,366.24 c 8.592,8.592 22.521,8.592 31.113,0 8.592,-8.592 8.592,-22.522 0,-31.113 z"
           id="XMLID_860_"
           inkscape:connector-curvature="0"
           style="fill:#d1a184;fill-opacity:0.01069519" />
        <path
           d="m 310.058,154.755 h -1.4 c -18.351,0 -36.043,-6.842 -49.619,-19.189 v 53.761 c 0,28.177 22.842,51.019 51.019,51.019 23.635,0 42.796,-19.16 42.796,-42.796 0,-23.635 -19.16,-42.795 -42.796,-42.795 z"
           id="XMLID_781_"
           inkscape:connector-curvature="0"
           style="fill:#99000f;fill-opacity:1" />
      </g>
      <g
         id="XMLID_1078_">
        <path
           d="M 485.71,328.056 402.434,244.78 V 181.5 c 0,-5.523 -4.478,-10 -10,-10 -5.522,0 -10,4.477 -10,10 v 43.281 l -20.077,-20.077 c 0.319,-2.341 0.498,-4.726 0.498,-7.153 0,-29.111 -24.385,-52.795 -53.496,-52.795 -15.897,0 -31.83,-5.891 -43.591,-16.587 -2.929,-2.664 -7.153,-3.349 -10.773,-1.748 -3.62,1.601 -5.955,5.187 -5.955,9.146 v 14.515 c -7.364,-3.522 -15.48,-5.384 -23.884,-5.384 -14.804,0 -28.721,5.765 -39.188,16.232 -13.811,13.812 -36.281,13.81 -50.092,0 -10.468,-10.468 -24.385,-16.232 -39.188,-16.232 -9.315,0 -18.278,2.287 -26.253,6.588 V 60 h 312 v 31.5 c 0,5.523 4.478,10 10,10 5.522,0 10,-4.477 10,-10 V 50 c 0,-5.523 -4.478,-10 -10,-10 H 302.6 V 10 c 0,-5.523 -4.478,-10 -10,-10 H 160.266 c -5.522,0 -10,4.477 -10,10 V 40 H 60.433 c -5.522,0 -10,4.477 -10,10 v 230 h -0.646 c -18.116,0 -32.854,15.884 -32.854,34 0,18.116 14.738,34 32.854,34 H 92.135 L 51.566,499.412 c -0.805,3.003 -0.167,6.209 1.726,8.676 1.893,2.467 4.825,3.913 7.934,3.913 h 49.793 c 4.526,0 8.488,-3.04 9.659,-7.412 l 20.088,-74.971 h 171.336 l 20.088,74.971 c 1.171,4.372 5.133,7.412 9.659,7.412 h 49.793 c 3.108,0 6.041,-1.446 7.934,-3.913 1.893,-2.466 2.53,-5.672 1.726,-8.676 L 360.731,348 h 42.348 c 3.563,0 7.052,-0.588 10.372,-1.692 l 27.003,27.003 c 6.239,6.238 14.433,9.357 22.628,9.357 8.194,0 16.39,-3.119 22.628,-9.357 12.475,-12.478 12.475,-32.779 0,-45.255 z M 170.266,20 H 282.6 V 40 H 170.266 Z m 98.773,134.802 c 12.081,6.494 26.354,9.953 40.319,9.953 18.084,0 33.496,14.712 33.496,32.795 0,18.083 -14.712,32.796 -32.796,32.796 -22.618,0 -41.02,-18.401 -41.02,-41.019 V 154.802 Z M 70.433,176.087 c 0.421,-0.306 0.829,-0.637 1.208,-1.016 6.689,-6.69 15.584,-10.374 25.045,-10.374 9.462,0 18.356,3.684 25.046,10.375 10.805,10.804 24.996,16.206 39.188,16.206 14.192,0 28.384,-5.402 39.188,-16.206 6.689,-6.69 15.584,-10.374 25.046,-10.374 8.924,0 17.343,3.281 23.884,9.268 v 15.362 c 0,33.646 27.373,61.019 61.02,61.019 2.36,0 4.679,-0.171 6.958,-0.473 L 347.143,280 H 70.433 Z M 103.346,492 H 74.258 l 38.583,-144 h 29.088 z M 146.124,409.618 162.634,348 h 127.599 l 16.51,61.618 z M 378.609,492 H 349.521 L 310.938,348 h 29.088 z M 49.788,328 c -7.088,0 -12.854,-6.912 -12.854,-14 0,-7.088 5.767,-14 12.854,-14 h 317.355 l 28,28 z m 421.779,31.168 c -4.68,4.68 -12.293,4.679 -16.971,0 L 337.844,242.416 c 6.876,-4.274 12.7,-10.083 16.994,-16.946 l 116.729,116.728 c 4.679,4.678 4.679,12.292 0,16.97 z"
           id="XMLID_265_"
           inkscape:connector-curvature="0"
           style="fill:#001b2e;fill-opacity:1" />
        <path
           d="m 392.433,126.5 c -2.63,0 -5.21,1.07 -7.07,2.93 -1.86,1.86 -2.93,4.44 -2.93,7.07 0,2.63 1.069,5.21 2.93,7.07 1.861,1.86 4.44,2.93 7.07,2.93 2.63,0 5.21,-1.07 7.069,-2.93 1.86,-1.86 2.931,-4.44 2.931,-7.07 0,-2.63 -1.07,-5.21 -2.931,-7.07 -1.859,-1.86 -4.439,-2.93 -7.069,-2.93 z"
           id="XMLID_1516_"
           inkscape:connector-curvature="0"
           style="fill:#000000;fill-opacity:1" />
      </g>
      <rect
         style="opacity:0.45800003;fill:#ffebff;fill-opacity:1;stroke:#e84747;stroke-width:2.17210889;stroke-linecap:round;stroke-linejoin:round;stroke-miterlimit:4;stroke-dasharray:none;stroke-opacity:0.3940678;paint-order:normal"
         id="rect837"
         width="320.47339"
         height="329.99875"
         x="-925.62115"
         y="-300.32675" />
      <rect
         y="29.671997"
         x="-925.62115"
         height="329.99875"
         width="320.47339"
         id="rect839"
         style="opacity:0.45800003;fill:#99e0ff;fill-opacity:0.77005351;stroke:#e84747;stroke-width:2.17210889;stroke-linecap:round;stroke-linejoin:round;stroke-miterlimit:4;stroke-dasharray:none;stroke-opacity:0.3940678;paint-order:normal" />
    </g>
    <rect
       style="opacity:0.45800003;fill:none;fill-opacity:0.01069521;stroke:none;stroke-width:9.21826744;stroke-linecap:round;stroke-linejoin:round;stroke-miterlimit:4;stroke-dasharray:none;stroke-opacity:1;paint-order:normal"
       id="rect849"
       width="511.23819"
       height="513.3595"
       x="-0.70710677"
       y="-254.5311" />
  </g>
</svg>
