<?xml version="1.0" encoding="UTF-8"?>
<svg xmlns="http://www.w3.org/2000/svg" id="Outline" viewBox="0 0 512 512" width="512" height="512"><path d="M19.562,198.656,40,212.281v9.052L17.6,251.2A8,8,0,0,0,24,264H48a8.026,8.026,0,0,0,1.569-.155l40-8a8,8,0,0,0,2.869-1.189l22.846-15.231,23.469-5.867,13.5,40.5,8.928,44.636-24.732,70.661a8,8,0,0,0,4.944,10.206l38.625,13.319,4.137,20.687a8,8,0,0,0,6.961,6.382l101.889,11.321-12.512,33.962A8,8,0,0,0,288,496H488a8,8,0,0,0,7.993-8.32l-8-200A7.988,7.988,0,0,0,480,280.005V259.422l10.734-3.9a8,8,0,1,0-5.468-15.038L480,242.4V76.944l11.578-5.789a8,8,0,0,0,2.186-12.7C492.1,56.719,452.211,16,392,16c-60.762,0-93.019,41.387-94.361,43.149a8,8,0,0,0,3.831,12.44l7.5,2.5L283.884,89.14a8,8,0,0,0,2.176,14.621l32.88,8.22-30.474,85.328A8,8,0,0,0,296,208h16.938l7.124,56.992A8,8,0,0,0,328,272h24v16.942l-42.71,15.531c-4.1,1.474-11.888-1.11-14-3.889L272,230.7V120a8,8,0,0,0-8-8H248V88a8,8,0,0,0-8-8H208a8,8,0,0,0-8,8v24a8,8,0,0,0-8,8H144.985l-28.9-7.224L93.657,90.343a8.012,8.012,0,0,0-4.088-2.188l-40-8A8.026,8.026,0,0,0,48,80H24a8,8,0,0,0-6.4,12.8L40,122.667v9.052L19.562,145.344A8,8,0,0,0,16,152v40A8,8,0,0,0,19.562,198.656ZM238.734,334.934l-14.881-64.481L218.778,240h35.778ZM195.056,216l5.251,10.5,6.25,37.5H165.766l-13.128-39.386L156.944,216Zm-40.85,171.057,13.139-37.54,9.037,45.187ZM169.759,280h39.877l22.569,97.8A8,8,0,0,0,240,384H408a32,32,0,0,1,.419,64L198.7,424.7ZM299.473,480l9.913-26.908,97.73,10.859A7.923,7.923,0,0,0,408,464a48,48,0,0,0,0-96H340.736l9.471-25.707,122.232-43.141L479.674,480ZM464,285.164l-96,33.882v-18.9l96-34.909ZM392,32c38.28,0,67.983,19.227,81.782,30.165L470.111,64H329.3l-10.766-3.588A109.319,109.319,0,0,1,392,32ZM330.216,80H464V211.056l-18.037-9.019-30.808-61.615A8,8,0,0,0,408,136H397.766l-6.176-18.53a8,8,0,0,0-5.65-5.231L308.678,92.923ZM360,256H335.062l-3.14-25.125a7.938,7.938,0,0,0,6.018.886l32-8a8,8,0,0,0-3.88-15.522l-32,8a7.95,7.95,0,0,0-3.7,2.1l-2.417-19.334A8,8,0,0,0,320,192H307.353l27.185-76.119L377.8,126.7l6.611,19.834A8,8,0,0,0,392,152h11.056l29.789,59.578a8,8,0,0,0,3.577,3.577L464,228.944v19.27l-96,34.91V264A8,8,0,0,0,360,256Zm-79.023,51.831c4.606,8.444,15.845,13,25.52,13a24.558,24.558,0,0,0,8.237-1.307L352,305.967v18.726l-10.662,3.763a8,8,0,0,0-4.845,4.778L323.684,368h-74.24L266.6,265.088,280.41,306.53A8.118,8.118,0,0,0,280.977,307.831ZM256,224H216.111l-.219-1.315a8.026,8.026,0,0,0-.737-2.263L208,206.112V128h48ZM216,96h16v16H216Zm-64,40h40v64H152Zm-32-5.754,16,4v83.508l-16,4ZM32,156.281l20.438-13.625A8,8,0,0,0,56,136V120a8,8,0,0,0-1.6-4.8L40,96h7.208l36.848,7.37L104,123.314V227.719L84.879,240.466,47.208,248H40l14.4-19.2A8,8,0,0,0,56,224V208a8,8,0,0,0-3.562-6.656L32,187.719Z"/><circle cx="352" cy="152" r="8"/></svg>
